<svg width="2109" height="2400" viewBox="0 0 2109 2400" fill="none" xmlns="http://www.w3.org/2000/svg"><path d="M1188.5.46c-4.46.56-5.51.9-9.51 3.06-5.25 2.85-8.51 5.8-12.01 10.75-1.35 1.96-4.7 6.61-7.4 10.41-2.71 3.76-5.66 8.2-6.61 9.86-2.4 4.2-6.8 9.8-8.71 11.1-1.7 1.16-2.65 1.36-13.15 3.11-17.32 2.8-27.82 7.9-38.18 18.36-5.96 6.06-8.81 10.11-19.57 28.12-4.8 8.06-10.6 13.06-17.71 15.36-3.55 1.16-7.45 3.1-8.9 4.46a10.08 10.08 0 00-3.11 6.7c0 2.4 2.56 6.5 4.66 7.5 2.35 1.16 6.8 1.5 11.91 1 5.6-.54 9.05-.4 9.3.4.1.3-.5.86-1.35 1.21-1.8.75-5.25 4.9-6.6 8-.7 1.6-1.1 3.8-1.25 7.51-.2 4.5-.1 5.66.8 8.06.6 1.55 1.6 3.3 2.3 3.95 1.1 1.05 1.15 1.25.5 2.5-1.05 2.05-3 3.4-6.56 4.46a53.5 53.5 0 00-5.55 2.2c-1.35.7-3.4 1.5-4.6 1.85-4.26 1.15-14.31 5.5-18.77 8.15-2.5 1.5-7.15 4.06-10.35 5.7-9.06 4.66-19.62 12.37-25.17 18.37-2.55 2.8-5.4 5.95-6.3 7.06-.96 1.1-4.21 4.6-7.26 7.75-3.1 3.15-7.86 8.1-10.56 10.96-10.46 10.9-18.36 16.81-27.82 20.62-2.65 1.04-5 1.95-5.3 1.95-.25 0-2.9.7-5.86 1.55-6.35 1.8-8.05 1.7-12.25-.7-1.5-.85-4.96-3.6-7.61-6.16-4.2-3.95-5.15-4.6-7.06-4.9-3-.45-4.6 0-7.75 2.1-2.7 1.85-4.4 4.2-7.6 10.56-.86 1.75-3.3 5.8-5.41 9-8.86 13.51-10.16 22.02-5.75 37.83 1.75 6.4 1.8 6.66 2 17.76.25 12.16-.15 16.17-2.6 27.42-2.56 11.51-8.51 26.62-12.71 32.28a51.73 51.73 0 01-6.06 6.35c-4.6 4.15-5.5 5.7-5.5 9.76 0 3.55.8 5.1 4.25 8.06 2.9 2.45 5.86 7.05 7 10.9 1.56 5.16 6.11 12.81 10.91 18.32 4.5 5.15 9.61 14.66 11.51 21.26 2 6.96 2.35 10.2 2.3 21.52 0 13.9-.1 14.16-6.1 17.31-4.1 2.2-7.7 4.75-14.41 10.2-2.75 2.26-3 2.36-9.8 3.56-.56.1-2.06 1.2-3.31 2.4-4.05 3.9-4.25 7.86-1.15 22.82 1 4.8 2.25 11.4 2.8 14.66.6 3.25 1.5 7.85 2.05 10.16 1.6 6.75 1.35 16.06-.6 21.01-.45 1.25-2 11.91-3.45 23.87-.45 3.95 0 13.46.95 18.86.85 5.06 1.15 12.66.6 15.96-.6 3.8-2.4 7.8-7 15.57-1.86 3.15-4.5 7.75-5.8 10.25-1.31 2.45-3.01 5.4-3.76 6.5-.75 1.1-3.35 5.61-5.86 10.01-2.5 4.4-5.6 9.91-6.95 12.26-1.4 2.36-3.8 7.06-5.45 10.51a106.3 106.3 0 01-3.8 7.56c-.5.7-2.06 3.75-3.46 6.75s-4.8 9.96-7.5 15.46c-7.86 15.76-13.26 28.17-15.82 36.28-1.8 5.7-5.5 16.06-6.45 18.01-.5.95-1.35 2.75-1.9 3.9-1.2 2.46-2.25 3.1-6.6 4.36-17.82 4.95-41.34 17.26-57.35 29.97-2.1 1.7-5.6 4.4-7.75 6.05-2.15 1.65-5.16 4.1-6.7 5.5-1.56 1.36-4.06 3.41-5.51 4.51-1.45 1.1-4.5 3.55-6.76 5.5-2.3 1.9-7.15 5.86-10.8 8.76-3.66 2.9-10.06 8-14.26 11.3-4.2 3.36-8.96 6.96-10.56 8.02-11.46 7.6-28.77 23.61-41.88 38.82-4.45 5.16-5.5 5.9-8.06 5.9-2.35 0-7.35-2.4-14-6.75-7.81-5.1-22.12-13.16-26.28-14.76-1.5-.6-6.7-3.05-11.5-5.5a102.15 102.15 0 00-16.26-6.7c-9.91-3.1-13.86-4.51-20.62-7.11-6.95-2.7-15.06-4.76-25.57-6.46-4.5-.7-9.9-1.7-12-2.25-2.1-.5-5.91-1.15-8.36-1.45a91.7 91.7 0 01-9-1.65c-4.31-1.05-5.71-1.1-33.53-1.25-30.12-.2-31.02-.15-46.78 2.05-2.9.4-7.71.95-10.76 1.3-3 .3-8.1.95-11.26 1.45-3.15.55-7.8 1.2-10.36 1.5-6.25.75-29.37 4.96-32.17 5.8-5.3 1.7-16.31 4.41-25.22 6.26-13.16 2.7-19.56 4.25-22.92 5.5-5.65 2.1-14.8 4.56-30.17 8.06-3.55.8-10.3 2.7-15 4.2a236.17 236.17 0 01-17.52 4.76 304.5 304.5 0 00-13.26 3.35c-2.35.7-6 1.7-8.1 2.2-2.1.5-5.16 1.4-6.76 1.95-1.6.6-7.25 1.7-12.56 2.5-5.3.8-9.86 1.6-10.1 1.76-.2.15-5.2.8-11.11 1.5-5.86.7-11.91 1.6-13.41 2-1.5.4-6.7 1-11.51 1.25-4.8.3-10.9.85-13.51 1.25-7.8 1.25-22.37 2.75-37.03 3.8-4 .25-8.95.85-11 1.25-2.06.4-6.66 1.15-10.26 1.7-3.55.5-7.9 1.4-9.66 1.96-2.8.9-8.2 1.95-22.56 4.35-5.1.85-7.46 2.1-9.26 4.85-1.2 1.8-1.35 2.5-1.2 5 .25 3.51 1.35 5.16 4.65 6.81 2 1.05 3 1.25 6.66 1.15 4.4-.05 6.25-.3 24.86-3.35 5.8-.9 14.21-2.3 18.77-3 4.55-.75 11.4-1.55 15.26-1.8 8.95-.55 10.96-.8 19.71-2.25a91.9 91.9 0 0111.51-1.2c2.4 0 6.1-.2 8.3-.5 7.56-.96 13.52-1.5 20.82-2 4-.26 9.2-.8 11.5-1.2 2.31-.4 6.91-1 10.22-1.3 3.3-.3 7.8-.96 10-1.51 2.2-.5 6.5-1.4 9.61-1.95 3.05-.6 6.56-1.4 7.76-1.85 1.15-.4 5.1-1.45 8.65-2.25 10.36-2.3 16.96-4.26 19.32-5.6 1.2-.7 3.9-1.76 5.95-2.31a364.7 364.7 0 008-2.25c6.31-1.8 12.56-3.3 19.02-4.56 3.2-.6 7.6-1.7 9.76-2.4 5.4-1.8 11-3.35 24.01-6.55 44.38-10.91 44.18-10.86 67.9-14.81 6.8-1.1 12.66-2.1 13.01-2.25.35-.15 3.8-.6 7.66-1 3.85-.45 9.5-1.16 12.5-1.56 4.4-.65 12.01-.85 38.78-1.05 37.63-.25 39.78-.1 54.54 3.36 4.55 1.05 10.76 2.3 13.76 2.75 3.05.45 7.3 1.25 9.5 1.8 4.71 1.1 16.87 5.15 22.27 7.35 2.05.86 7.36 2.7 11.76 4.16 7.3 2.35 15.06 5.75 18.31 8 .7.5 2.5 1.35 4 1.95 4 1.56 17.22 8.26 19.07 9.66.9.7 2.8 1.8 4.2 2.5 1.45.75 4.96 2.9 7.86 4.86 4.75 3.15 5.35 3.7 5.65 5.3.2 1.2.05 2.35-.45 3.45-.75 1.55-6.6 8.5-14.36 17.02-1.8 1.95-5.85 6.8-9 10.7-3.16 3.96-9.21 11.26-13.36 16.26-23.22 27.63-28.22 32.08-47.69 42.84-3.15 1.75-7.3 4.15-9.2 5.4-4.8 3.05-17.07 9.26-20.32 10.26-1.5.45-4.75 1.05-7.25 1.35-5.36.65-16.12 3.5-21.02 5.65-4.8 2.05-15.16 7.96-18.61 10.61-3.45 2.6-9.86 8.81-13.56 13.06-5.5 6.4-9.46 7.05-46.13 7.71-19.57.35-27.47.65-32.78 1.35-6.1.75-11.25.9-40.27.85-28.23 0-34.53-.15-41.53-.9-11.31-1.2-16.52-2.06-21.72-3.56-2.45-.7-6.86-1.75-9.76-2.3-2.9-.55-6.3-1.45-7.5-2-2.45-1.05-13.36-3.95-21.82-5.7-18.41-3.91-19.46-4.21-42.53-11.61-3-.95-9.9-3.4-15.26-5.41-5.35-2-11.3-4.1-13.26-4.7-1.9-.55-5.75-1.95-8.5-3.05-8.96-3.65-15.41-5.96-22.02-7.76-3.55-1-9.2-2.7-12.5-3.8-18.32-6.15-31.33-8.21-51.8-8.21-11.35 0-13.6.15-15.76.9-4.85 1.66-7.8 6.01-7 10.31.45 2.45 1.4 3.8 3.9 5.46l2.1 1.35h10.01c8.26 0 11.7.25 19.76 1.4 17.02 2.45 24.52 4.3 44.09 10.86 9.8 3.3 19.36 6.7 21.26 7.55 5.3 2.4 13.81 5.76 17.31 6.86 7.06 2.25 13.61 4.65 15.11 5.55.85.55 3.16 1.45 5.06 2 1.95.55 5.2 1.55 7.25 2.25a175.83 175.83 0 0018.62 5.26c2.6.55 5.9 1.45 7.4 2.05 1.45.55 5.25 1.6 8.46 2.25 3.2.7 7.5 1.65 9.55 2.2 2.06.5 5.1 1.3 6.76 1.7 9.15 2.3 16.96 4.36 20.51 5.51 5.06 1.55 11.61 2.7 20.27 3.45 4.55.35 29.17.6 75.4.75l68.6.2 13.66-1.75c17.66-2.3 16.66-1.8 27.47-12.76 12.9-13.06 16.66-15.71 28.02-20.06a101.82 101.82 0 0121.26-5.76c8.56-1.4 14.81-3.95 26.37-10.81 2.95-1.75 8.56-5 12.51-7.15 21.01-11.61 24.72-14.71 46.03-38.28 2.15-2.4 5.4-6.2 7.26-8.5 1.9-2.3 4.65-5.71 6.2-7.51 1.5-1.8 4.2-5.1 5.9-7.3 1.76-2.2 7.51-8.86 12.82-14.77a633.61 633.61 0 0021.61-25.26c8-9.76 12.96-15.57 16.16-19.02 7.7-8.2 15.46-16.21 17.72-18.26 1.4-1.25 3.65-3.3 5-4.55 1.4-1.26 7.85-6.21 14.3-11.06 6.46-4.8 13.37-10.11 15.32-11.71 3-2.45 19.91-16.06 33.12-26.62 1.85-1.5 4.06-3.3 4.9-4a175.78 175.78 0 0127.48-19.37c3.05-1.7 6.95-3.95 8.75-5 3.15-1.8 10.3-4.8 13.11-5.46 1.2-.25 1.5-.1 2.2 1.3.75 1.46.8 2.6.25 12.41-.55 10.81-.35 15.06 1 22.17.6 3 3.86 11.7 5.86 15.66 1.1 2.1 1.25 2.95 1.15 5.8-.05 1.9-1.45 3.8-8.06 10.91-1.15 1.25-4 4.7-6.4 7.7-2.4 2.96-5.15 6.41-6.16 7.66-1 1.2-2.8 3.8-4 5.7-1.2 1.96-3.85 6.06-5.9 9.12-2.06 3.1-4.66 7.3-5.8 9.35-1.16 2.05-4.21 7.3-6.81 11.61-7.26 12.1-12.21 21.17-14.71 26.92-1.25 2.9-3.1 6.7-4.1 8.5-1 1.8-4 7.61-6.76 12.97-2.7 5.35-5.45 10.4-6.05 11.25-1.2 1.6-5 9.21-6.1 12.31a78.4 78.4 0 01-3.21 6.51c-1.4 2.6-3.7 7.2-5.16 10.25-2.55 5.36-13.8 27.72-22.56 44.94-2.4 4.6-4.75 9-5.25 9.75-.56.75-2.6 4.41-4.6 8.11-2 3.7-5.16 9.21-7.01 12.26-1.85 3-4.66 7.85-6.3 10.76-1.6 2.9-4.06 7.15-5.46 9.5-1.4 2.36-3.75 6.61-5.2 9.46-1.46 2.85-3.8 7.06-5.26 9.26-1.4 2.25-3.55 5.75-4.75 7.8-1.2 2.05-3.8 6.21-5.8 9.26-2 3-4.5 7.05-5.56 9.01a149.5 149.5 0 01-6.95 11.5c-8.86 13.61-8.36 12.91-11.16 14.31-6 2.96-12.41 4.06-35.38 6.01-10.7.9-15.1 1-30.77.8-15.56-.2-19.16-.35-24.27-1.25-3.3-.6-8.15-1.25-10.8-1.55-2.6-.25-8.01-1.15-12.01-2l-12.66-2.56c-9.16-1.75-15.71-4.15-27.17-10-5.8-2.95-12-6.36-13.76-7.56-3.35-2.3-8.06-5-13.36-7.75a47.41 47.41 0 01-4-2.36c-1.35-1.2-8.96-4.8-15.56-7.4-3.46-1.4-7.6-3.15-9.26-3.9a38.47 38.47 0 00-4.25-1.81c-.7-.2-2.5-.9-4-1.5-3.66-1.5-13.92-4.1-29.78-7.55-12.96-2.8-13.06-2.8-26.77-3.5-7.55-.35-15.56-.55-17.76-.4-2.2.15-8.86.45-14.76.7-8.5.35-12.4.75-18.76 1.95-4.4.85-12.26 2.2-17.52 3.05-5.2.85-13.76 2.4-19 3.5-5.21 1.1-11.77 2.45-14.52 3.05-2.75.55-7.2 1.56-9.86 2.21-9.7 2.5-28.27 4.55-36.92 4.15-7.16-.35-8.46-1.25-18.62-13.16-10.1-11.76-20.56-20.77-39.67-34.13-11.51-8-18.27-12.35-28.27-18.16a146.96 146.96 0 01-6.26-3.75c-4.2-2.65-8.25-5-14-8.01-3-1.6-5.96-3.3-6.51-3.8-.55-.5-4.5-2.6-8.76-4.6-4.25-2.05-11.06-5.31-15.1-7.31-4.06-1.95-7.51-3.55-7.66-3.55-.15 0-3.46-1.5-7.41-3.35-6.45-3.01-7.4-3.36-10.46-3.36-2.9-.05-3.55.15-5.5 1.46-3.55 2.5-4.8 6.8-3.2 10.95 1 2.56 4.6 6.21 7.85 7.81 1.2.65 2.85 1.65 3.6 2.3.8.65 1.6 1.2 1.86 1.2.25 0 2.3.85 4.6 1.95 2.3 1.05 4.7 2.1 5.4 2.3.7.2 4.66 2.01 8.76 4.01l12.8 6.15c2.96 1.4 6.91 3.5 8.76 4.66 1.9 1.15 6.41 3.75 9.96 5.7a668.4 668.4 0 0130.97 18.61c7.36 4.71 10.76 7.11 22.42 15.66 8.96 6.61 19.51 17.07 28.62 28.37 3.65 4.56 4.35 5.76 7.3 12.91 2 4.86 5.26 11.16 7.06 13.76l5.2 7.91c2.35 3.7 5.36 8.01 6.6 9.66 3.16 4.2 11.62 20.11 14.17 26.72 1.15 3.05 3.35 8.3 4.85 11.75 1.5 3.46 4.76 10.96 7.2 16.77 2.46 5.75 4.96 11.4 5.46 12.51 1.8 3.65 4.45 11.45 5.45 16.11.56 2.5 1.3 5.25 1.76 6 .4.8 1.1 2.9 1.55 4.66.45 1.8 1.45 4.7 2.25 6.5.8 1.8 1.8 5.25 2.25 7.76a250.1 250.1 0 003.1 13.25c1.25 4.81 2.3 9.31 2.35 10.01.05 1-.4 1.5-2.2 2.4-2.1 1.1-2.65 1.15-7.75.85-7.3-.4-14.91-1.55-16.72-2.45-3.9-2.05-6.15-5.25-8.05-11.51-2-6.5-22.57-49.13-26.72-55.54-1.5-2.25-4.15-6.55-5.95-9.55-1.8-3.05-4.06-6.56-4.96-7.86-8.4-11.81-8.95-12.56-15.1-19.66-1.96-2.2-8.71-9.41-15.12-16.01a883.14 883.14 0 01-13.2-13.91c-.9-1.05-4.46-4.41-7.96-7.51-3.46-3.1-6.36-5.75-6.46-5.95-.15-.35-15.7-12.51-19.11-14.96-.95-.71-3.9-2.86-6.5-4.81-2.6-1.9-5.31-3.8-6.01-4.15-.7-.35-3-1.9-5.15-3.45-9.46-6.81-8.76-6.36-21.37-13.81-15.61-9.26-27.02-11.21-31.07-5.36-3.7 5.31-.85 12.06 6.25 14.61 1.65.65 3.86 1.65 4.8 2.3a8.97 8.97 0 002.16 1.21c.25 0 3 1.25 6.15 2.75 5.16 2.55 12.81 7.5 24.47 15.96l9.56 6.9c10.7 7.66 17.5 13.01 23.31 18.22 6.4 5.75 16.01 15.41 19.27 19.26a408 408 0 0011.4 12.26c11.56 12.11 18.37 20.51 23.37 28.97 1.15 1.9 3.25 5.3 4.7 7.51 5.2 7.95 13.06 22.66 15.72 29.47.9 2.25 2.75 6.2 4.1 8.8 3.9 7.36 4.2 8.01 6.85 14.56 3.56 8.76 4.06 11.76 2.4 13.86-.4.45-.75.25-1.5-1-.55-.9-1.75-2.4-2.65-3.4-2.85-3-5.9-6.8-7.7-9.71-5.8-9.25-16.17-24.61-17.72-26.31-.65-.71-2.85-3.76-4.95-6.76-8.35-12.01-42.83-49.89-54.89-60.34-4.9-4.26-15.3-11.11-21.61-14.26-3.1-1.55-7.46-3.86-9.61-5.11a130.6 130.6 0 00-10.76-4.95 330.2 330.2 0 01-12.56-5.3c-5.35-2.41-6.05-2.61-10.25-2.76-4.1-.15-4.76-.05-7.26 1.25-3.35 1.71-4.75 4.11-4.7 8.01 0 1.9.35 3.05 1.35 4.6 1.65 2.51 3.7 3.56 9.9 5.21 4.5 1.2 9.56 3.45 26.17 11.66 7.2 3.55 10.41 5.3 12.16 6.55.85.6 2.15 1.35 2.95 1.65.8.3 2.4 1.3 3.6 2.15 3.96 2.91 13.82 11.66 17.07 15.16l6.05 6.46c5.1 5.4 17.17 18.96 22.82 25.62 9.4 11.01 25.52 33.07 29.17 39.93 1.95 3.7 11.96 18.26 16.61 24.26a133.8 133.8 0 0025.12 24.82c4.85 3.65 17.76 9.36 28.87 12.76 18.06 5.45 22.02 6.96 27.57 10.31 4.35 2.65 6.7 5 7.16 7.2.15.65.4 5.26.55 10.21.15 4.95.6 11.16.95 13.76.7 4.6 1.95 14.81 2.8 22.52.3 3.1.25 4-.45 5.25-.75 1.35-1.1 1.5-2.85 1.35-2.3-.2-4.26-1.3-8.96-5.05-9.1-7.26-20.86-20.92-25.07-29.22-1.2-2.35-4.95-6.61-6.9-7.81-1.9-1.2-5.56-1.5-7.3-.55-3.06 1.55-5.51 5.46-5.51 8.71 0 2.6 2.15 8.6 4 11.26 3.75 5.45 10 14.21 11.46 16.06 2.95 3.85 10.1 10.91 15 14.91 8.66 7.1 9.82 7.9 15.82 11.11 13.91 7.4 16.96 9.75 17.71 13.71 1.3 6.9 3.06 28.52 3.06 37.32 0 5.11.2 12.76.5 17.02 1.4 22.11 2.1 41.93 1.95 54.03-.2 12.31-.25 13.41-1.25 15.02-.55.95-1.25 1.75-1.55 1.75-.8 0-4.2-5.41-7.11-11.16-3.25-6.61-7.2-18.26-9.5-28.22-1.96-8.31-4.61-13.66-7.61-15.16-1.9-1-6.3-1.1-8.2-.2-1.76.85-3.56 3.85-3.96 6.7-.35 2.05 1.7 14.51 3.45 21.27.9 3.4.95 6.15.25 7.55-1.1 2.05-7.55.5-9.16-2.2-.4-.6-1.65-2.8-2.85-4.85-1.2-2.05-2.75-4.66-3.5-5.76-.7-1.1-2.5-4.25-4-7-1.45-2.75-3.8-7.06-5.26-9.51-1.45-2.5-3.6-6.9-4.75-9.91-2.3-5.95-10.36-19.71-18.86-32.32a189.05 189.05 0 01-6.26-9.76c-.55-1.1-2.25-3.9-3.7-6.2a81.4 81.4 0 01-4.2-7.16c-1.75-3.45-4.6-13.06-5.46-18.46-.9-5.4-1.9-8.71-4.05-13.26-2.2-4.6-4.3-6.25-7.95-6.25a7.7 7.7 0 00-7.36 4.65c-1.5 3.3-1.5 5.5.05 15.36 2.4 15.26 4.2 20.37 12.86 36.53 2.1 3.85 10.76 17.21 15.01 23.06 2.45 3.41 7.3 12.56 9.4 17.72a50.68 50.68 0 003.36 6.5c1.15 1.9 2.8 4.76 3.6 6.26.8 1.5 2.6 4.65 4.05 7 1.46 2.35 4.16 7.31 6.06 11.06 1.85 3.75 5.1 9.71 7.2 13.26 2.16 3.55 4.4 7.55 5.1 8.96.7 1.35 2.46 4.3 3.86 6.5 1.45 2.2 3.55 5.65 4.7 7.61l4.2 7.25c1.16 2 2.8 4.45 3.6 5.45a52.13 52.13 0 013.56 5.11c1.1 1.85 3.45 5.4 5.2 7.95 1.76 2.56 4.76 7.26 6.66 10.41 4.25 7.01 9.9 14.51 12.7 16.86 2.41 1.96 3.66 4.66 3.36 7.16-.4 3.35-7.55 32.27-9.4 38.03a72.97 72.97 0 00-1.96 7.9c-.45 2.3-1.2 5.76-1.75 7.76-1.55 5.65-5.05 20.61-5.05 21.46 0 .45-.55 2.66-1.25 4.96-1.6 5.3-4.36 15.71-6.56 24.46-2.65 10.86-4.6 17.57-5.9 20.52-.7 1.5-1.55 4.25-2 6.05-.4 1.81-1.2 4.41-1.7 5.76a33.21 33.21 0 00-1.56 5.45c-1.65 8.41-7.45 23.97-9.85 26.37-1.9 1.9-5.06 3.35-8.66 3.95-4.4.7-34.47.7-38.98 0-9.9-1.55-18.46-7.2-33.87-22.36-6.95-6.91-13.4-13.96-17.26-18.97-1.5-1.95-4-4.95-5.56-6.75a64.13 64.13 0 01-4-5.1c-.65-1.01-3.45-4.96-6.25-8.76-2.76-3.8-5.56-7.81-6.2-8.91-1.76-3.05-12.22-18.91-15.67-23.81-4.5-6.41-8-8.96-12.36-8.96-3.5 0-6.2 1.5-7.15 3.95-2 4.96-.7 9.41 5.2 18.11.5.71 1.55 2.76 2.4 4.51a113.6 113.6 0 003.6 6.7c1.16 1.9 2.86 4.86 3.7 6.51.9 1.65 2.81 5.15 4.26 7.75 2.7 4.91 4.7 9.36 6.76 15.01a85.2 85.2 0 002.25 5.76c3 6.8 7.25 22.92 9.25 35.02.7 4.11 1.46 8.41 1.76 9.51.75 3.1.6 4.15-.6 4.8-1.66.9-6.06.65-10.91-.5-5.5-1.35-13.76-2.05-23.77-2.05-13.1 0-18.31.7-34.27 4.51-8.41 2-14.11 6.1-14.76 10.65-.45 3.06.05 5.11 1.85 7.16 3.25 3.65 6.6 4 14.06 1.45 7.35-2.5 15.3-3.7 26.87-4.05 14-.45 29.32 1.15 37.27 3.9 8.6 2.95 17.06 2.4 21.22-1.4 2.4-2.1 2.45-2.5 2.8-14.21.25-7.31.15-10.36-.55-14.51-.45-2.9-.9-6.51-1.05-8.06-.25-2.6-.2-2.85.9-3.1.65-.2 1.55-.35 2-.35 1 0 4.9 3.05 9.96 7.7 10.9 10.11 21.86 16.37 32.52 18.62 5.85 1.25 7.36 1.35 24.02 1.65 20.51.35 20.51.35 20.51 4.55 0 3.16-5.6 19.77-10 29.52a197.6 197.6 0 00-3.7 8.76c-3.71 9.56-12.02 23.82-18.82 32.27-2.6 3.26-6.06 7.36-7.6 9.11-3.36 3.75-4.41 5.95-4.41 9.16 0 3.1 1 5.25 3.3 7.15 4.36 3.6 9.06 2.25 15.71-4.35 12.31-12.26 25.12-33.12 34.08-55.44 1.4-3.5 3.15-7.56 3.85-8.91 1.35-2.75 3.5-8.65 5.4-15.26.7-2.35 1.7-5.35 2.26-6.7.55-1.35 1.3-3.86 1.75-5.51.45-1.7 1.35-4.05 2-5.3.7-1.25 1.95-4.75 2.8-7.76.85-3.05 2.2-7.75 2.95-10.5a206.7 206.7 0 013.7-11.51 235.97 235.97 0 005.76-18.02c.85-3.05 3.35-11 5.55-17.76 4.06-12.66 5.86-18.76 6.96-23.52.35-1.5 2.85-11.4 5.55-22.01 2.7-10.61 5.5-22.32 6.2-26.02.66-3.7 2.16-9.81 3.26-13.51 2.65-8.86 11.86-47.48 12.76-53.54.4-2.6.75-6.8.75-9.36 0-2.55.55-8.3 1.2-12.75 1.85-12.21 2.35-36.43 1.75-82.71-.8-60.45-2.35-79.26-10.2-121.34-.66-3.45-1.3-7.96-1.5-10.01-.16-2.05-.8-6.45-1.36-9.76-.95-5.35-1.1-8.75-1.4-31.77l-.3-25.77-1.9-7a617 617 0 01-3.1-11.86c-1.55-6.51-3.9-12.41-8.61-21.87a113.8 113.8 0 01-8.86-24.07c-2.5-11.1-9.1-34.87-10.25-37.02a48.65 48.65 0 01-2-5.21c-1.36-3.85-4.36-12-7.26-19.56-.7-1.95-1.65-3.85-2.05-4.3-.95-1.05-3.8-7.81-5.95-13.96-2.9-8.46-4.06-11.11-9.21-21.32-4.9-9.71-9.5-17.26-16.61-27.22-3.8-5.35-5.26-8.75-4.3-10.01 2-2.55 2.8-2.75 18.6-4.5 2.76-.3 6.71-1 8.76-1.5s7-1.4 11.01-2c4-.6 9.6-1.6 12.5-2.25 2.91-.65 7.31-1.45 9.77-1.8 2.5-.3 6.2-1.1 8.25-1.76 2.05-.65 6.26-1.5 9.26-1.95 3.05-.4 7.2-1.1 9.26-1.5 4.55-.9 16.9-2.05 29.92-2.8 13.06-.7 32.57.4 40.13 2.25 1.5.4 5.4 1.2 8.65 1.75 3.25.6 6.76 1.5 7.76 2 1.05.5 4.05 1.41 6.75 2.01 5.8 1.25 15.16 4.3 20.12 6.55 1.95.85 4.95 2.2 6.75 3 8.46 3.76 14.21 6.61 17.36 8.61a160 160 0 007.9 4.65c2.51 1.3 6.86 3.91 9.76 5.66 5.3 3.3 8.31 4.8 21.52 10.85 6 2.81 8.7 3.71 15.76 5.36a281.1 281.1 0 0016.51 3.2c4.4.7 8.96 1.5 10.16 1.75 1.2.25 5 .8 8.5 1.2 3.5.4 9.51 1.25 13.37 1.85 6.35 1.05 8.7 1.15 25.01 1.15 16.62 0 18.82-.1 28.27-1.35 12.46-1.6 23.07-2.2 25.42-1.35a4.7 4.7 0 012.35 1.9c1.5 2.96 3.15 28.68 3.5 54.34.1 10.71.46 21.87.7 24.77a384.37 384.37 0 012.06 33.28c.5 16.76 1.05 25.01 2.3 33.27.6 3.7.95 11.16 1.2 25.52.45 20.36 1.05 36.27 2 49.28.65 9.06.65 40.83 0 48.84-.55 6.85-1.25 18.01-2 32.97-.3 5.36-.95 12.36-1.5 15.51-.5 3.16-1.2 8.01-1.5 10.76-.45 4.51-2.35 17.31-4.1 28.02-.36 2.2-.66 5.71-.66 7.76.05 5.8 1.56 7.65 10.51 12.66 11.61 6.55 15.01 8.2 24.02 11.36 2.2.8 5.15 1.85 6.5 2.45 4.46 1.8 12.11 4.05 18.12 5.35 13.66 2.9 15.7 3.25 21.91 3.75 3.6.25 9 .85 12.01 1.25 6.3.85 18.96 1.01 22.27.25 1.25-.25 5-.85 8.35-1.25 14.11-1.85 41.43-7.85 45.83-10.1.8-.45 5.46-2.11 10.31-3.71 8.4-2.75 10.86-3.75 24.57-10 9.5-4.31 14.46-6.81 20.76-10.46 7.36-4.3 9.91-5.26 11.71-4.3 2.1 1.05 2.75 2.2 5.26 9 1.3 3.55 3.25 8.31 4.35 10.51 1.95 4.05 5.45 12.81 5.45 13.76 0 .85 3.55 11.66 4.36 13.21 1.4 2.7 4.35 6.3 6.15 7.5 1 .66 4.6 2.46 8 4.06 3.46 1.6 6.96 3.4 7.76 4.05 1.5 1.15 7.06 3.85 15.76 7.76 6.66 2.9 7.7 4.05 8.96 9.2.35 1.35 2.2 5.41 4.15 9.01 6.76 12.46 7.36 13.51 8.3 16.01.56 1.35 1.7 4.2 2.5 6.31.86 2.1 2.81 6.5 4.41 9.75 2.8 5.86 3.86 8.31 6.76 15.56.75 1.96 2.75 6.26 4.4 9.51 1.65 3.25 3.95 8.16 5.05 10.91 1.7 4.2 5.5 12.01 8.66 18.01.45.8 1.75 3.5 2.85 6.01 1.1 2.45 2.45 5.3 2.95 6.25.55.95 3.46 6.61 6.46 12.51 3 5.9 6.2 12.01 7.1 13.51 1.9 3.2 4.5 8.81 6.5 13.86 1.7 4.45 3.56 7.5 7.41 12.26 3.7 4.65 9.46 14.61 12.21 21.16 3.2 7.66 4.05 9.36 8.96 18.77 8.2 15.76 11.41 22.31 12.96 26.42 3.05 8.35 4.1 10.9 5 12.36.95 1.55 3.25 7.5 6.16 16.01 2.95 8.6 4.65 12.96 5.75 14.76.55.95 2.25 5.45 3.75 10 3.55 10.61 4.76 13.61 7.76 20.02 1.4 2.9 3.15 7.15 4 9.51 1.95 5.45 4.45 11.8 7.36 18.76 2.6 6.2 5.45 16.26 6.55 23.02.4 2.45 1.4 6.65 2.2 9.25.8 2.6 1.8 6.71 2.25 9.11a83.38 83.38 0 001.8 7.65 89 89 0 012.01 9.41c.5 3.35 1.4 8.36 1.9 11.11.55 2.75 1.25 7.21 1.5 9.91.3 2.7 1.05 6.15 1.6 7.75 1.45 3.86 4.1 13.76 6.2 23.12 2.21 9.96 4.46 18.21 5.71 21.21 2.4 5.51 7.8 31.43 9.1 43.69.51 4.35.51 6.35 0 9.25-.85 5.16-4.2 14.61-7.65 21.67-1.6 3.3-4.1 8.71-5.5 12.01-3.21 7.55-5.56 12.36-8.71 17.76-3 5.05-11.16 21.42-14.76 29.52-1.4 3.15-2.8 6.11-3.15 6.51-.55.7-2.96 4.8-10.81 19.01-1.5 2.6-4.5 8.36-6.71 12.76-2.25 4.4-5.2 9.76-6.55 11.86-6.96 10.81-12.51 19.01-15.01 22.16-1.55 1.91-3.95 4.96-5.41 6.76-1.4 1.8-4.1 5.85-6 9.01-1.9 3.15-5 8-6.85 10.75a139.82 139.82 0 00-5.86 9.76c-1.4 2.6-3.45 6.45-4.65 8.51-2.6 4.6-6.3 13.26-7.26 17.01-2.45 9.56.5 16.01 7.3 16.01 6.46 0 9.07-2.75 14.92-15.56 2.3-5.05 5-10.66 6.05-12.46 5.41-9.31 9.01-15.26 12.01-19.76 1.85-2.76 4-6.06 4.81-7.31 3.3-5.25 4.45-6.85 6.95-9.71 1.4-1.65 4.1-5.25 5.95-8a176.1 176.1 0 015.01-7.26 131 131 0 005.6-9c2.1-3.71 4.76-8.31 5.86-10.26 1.1-1.9 2.3-4.25 2.7-5.26 1.45-3.5 6.6-13.81 8.35-16.71 4.06-6.6 11.71-21.56 13.81-26.82 2.81-7.15 5.11-12.01 6.86-14.66 3.05-4.5 14.51-28.17 15.91-32.87.4-1.35 2.35-5.66 5-11.26.95-1.95 2.81-6.65 4.21-10.51 1.35-3.85 2.6-7.4 2.8-7.9.2-.5 1.65-1.75 3.2-2.85 4.25-2.86 5.65-4.76 7.51-10.01.9-2.6 2.5-6.41 3.5-8.46 2.1-4.2 4.9-11.86 8.05-22.06 1.15-3.71 2.76-7.96 3.56-9.41 1.4-2.5 2.3-4.7 5.2-12.51.7-1.85 1.9-4.8 2.7-6.6 4-8.76 5.61-12.81 7.56-19.02 3.25-10.31 6.35-19.31 7.45-21.36.5-1.05 2.4-6.31 4.21-11.66a324.2 324.2 0 019.1-24.42 87.8 87.8 0 003.5-10.86c.71-2.9 1.71-6.55 2.26-8.15.85-2.46 2.45-10.66 4-20.62.9-5.55 1.5-19.06 1.5-32.72 0-7.76.35-19.82.7-26.82 1.2-20.97 1.8-35.83 1.8-44.03a287 287 0 01.5-14.96c1.05-14.97 1.7-27.92 1.6-30.93-.15-4.35-2.15-11.76-4.3-16.16-3.45-6.9-8.01-11.01-12.31-11.01-3.75 0-6.7 2.15-17.36 12.51-6.71 6.51-8.91 9.46-13.66 18.07a76.3 76.3 0 01-3.85 6.2c-.85 1.2-1.9 2.85-2.35 3.6-.86 1.7-4.71 4.46-5.31 3.81-.8-.86-1.6-6.06-1.85-12.16-.25-5.66-.15-6.96 1.25-13.76.85-4.16 2-11.36 2.6-16.02.6-4.7 1.5-11.55 2-15.26.55-3.7 1.31-10.6 1.76-15.26.4-4.95 1.15-9.95 1.75-12.01.7-2.3 1.2-6.2 1.55-11.25 1.05-17.07 2.7-26.62 5.5-32.18 1.05-2.05 2.05-3.6 10.51-16.76a170.39 170.39 0 0113.96-18.61 420.5 420.5 0 0016.76-20.87c1.35-1.85 3.85-5.1 5.5-7.15 1.71-2.05 4.61-6.01 6.51-8.76 1.9-2.75 4.5-6.45 5.8-8.26 3.51-4.8 16.97-31.82 16.97-34.02 0-.25.65-1.9 1.5-3.6 5.05-10.71 9.1-26.07 10.5-39.68.3-3.05 1-8.01 1.51-11.01.55-3.05 1.2-7.55 1.55-10.01.3-2.5.95-6.25 1.5-8.35.55-2.15 1.4-6.76 1.95-10.26 1.45-9.76 5.95-23.97 9.46-29.92.45-.85 2.15-4.25 3.7-7.61a77.93 77.93 0 015.15-9.5 86.88 86.88 0 005.01-8.66c1.45-2.9 3.15-5.75 3.8-6.3 1.25-1.16 5.25-3.26 15.91-8.41 10.56-5.1 22.36-11.66 27.02-15.01 2.35-1.7 6.05-4.3 8.25-5.81 18.12-12.25 25.57-18.11 37.98-29.77 3.85-3.55 7.86-7.3 8.96-8.25 4.3-3.76 12.76-12.56 15.86-16.52 3.75-4.75 6.25-7.65 15.41-17.86 7.6-8.45 9.41-9.66 12.46-8.4.95.4 3.35 1.75 5.3 2.95 6.76 4.15 15.06 6.05 21.17 4.8 7.7-1.6 13.71-5.05 15.76-9.16 2.3-4.5.3-10.3-4.3-12.5-2.16-1.06-6.56-1-12.61.15-3.26.65-3.81.6-5.36-.15a3.67 3.67 0 01-2.25-2.66c-.7-2.45-.4-2.9 5.95-9.45a519.36 519.36 0 0026.12-29.37c1.55-1.86 4.51-5.26 6.51-7.56 3.8-4.25 10.76-12.81 17.61-21.57 2.15-2.8 5.15-6.4 6.56-8.05 1.45-1.65 3.95-4.7 5.55-6.81 4.5-5.85 9.61-12.2 13.21-16.41 1.8-2.1 5.45-6.5 8.15-9.8a949.32 949.32 0 0120.12-24.27c2.5-2.8 4.9-5.66 5.4-6.31.75-.95 1.4-1.2 3.2-1.2 2.16 0 2.46.2 5.56 3.35 6.85 6.86 14.96 8.61 26.32 5.66 4.75-1.25 6.9-2.3 11.71-5.71 8.3-5.8 10.45-7.75 17.31-16.01 6.75-8.05 7-8.3 8.85-8.3 2.16 0 2.51.4 5.71 6.25 2.15 3.95 3.9 6.76 8.85 14.16 1.86 2.8 4.56 6.96 5.96 9.26 1.45 2.25 3.85 5.8 5.4 7.8 1.55 2.06 4.16 5.81 5.81 8.36 1.65 2.55 4.25 6.35 5.8 8.56 5.65 7.95 10.41 16.41 21.32 38.17 10.8 21.57 12.4 24.87 17.36 35.98a74.58 74.58 0 003.25 6.5c.5.7 2.3 3.91 3.9 7.06 3.81 7.25 6.61 12.16 7.16 12.51.5.3 3.1 4.85 7.6 13.51 1.7 3.15 3.56 6.4 4.21 7.25.6.8 4.15 7.71 7.9 15.26 8.21 16.57 8.51 17.72 6.56 24.87a66.63 66.63 0 01-2.46 7.61c-1.7 4.15-6.85 11.91-11.4 17.11a224.94 224.94 0 00-6.66 8.01 232.6 232.6 0 01-7.75 8.95c-2.61 2.9-5.61 6.26-6.66 7.46-1.85 2.05-10.91 10.71-21.31 20.26-6.71 6.16-19.02 16.36-23.57 19.62a99.63 99.63 0 00-5.45 4.2c-2.71 2.25-7.76 5.8-20.97 14.81-7.65 5.2-10.11 7.56-11.01 10.66-.85 2.8-.75 4.55.55 7.05 1.55 3.06 3.26 4.16 6.71 4.41 4.2.3 6.4-.5 11.26-4.01 2.4-1.75 6.2-4.3 8.4-5.65 6.06-3.75 29.97-21.52 35.98-26.72 1.75-1.55 4.8-4.15 6.8-5.8a483.7 483.7 0 0027.92-26.22c1.7-1.8 3.66-3.81 4.36-4.51l5.6-6.15c2.45-2.65 4.85-5 5.4-5.15.55-.2 1.8-.05 2.71.25 1.55.5 1.95 1.05 3.7 5.15 5.45 12.41 7.3 18.56 9.85 32.07a72.26 72.26 0 002.96 11.06c2 5.05 6.3 11.96 10.2 16.31 4.11 4.61 4.51 5.76 3.26 9.36-.55 1.55-2.51 7.25-4.26 12.61-3.85 11.36-4.75 13.56-9.25 21.71-6.76 12.36-15.81 27.07-19.67 32.08-1.15 1.5-3.7 5.1-5.7 7.95-4.95 7.26-18.91 25.37-28.32 36.83-1.9 2.35-6.16 7.51-9.36 11.46-5.8 7.15-7.2 8.7-18.66 21.11-3.2 3.41-6.91 7.46-8.26 8.96-7.7 8.61-27.22 28.52-32.77 33.47-2.35 2.06-7.15 6.36-10.76 9.51a546.6 546.6 0 00-10.25 9.26c-2.11 1.95-6.51 6-9.76 9.05-8.81 8.06-10.56 10.01-11.46 12.61-1.75 5.16-.25 10.06 3.7 12.06 1.2.6 2.9 1.1 3.81 1.1 2.5 0 6.7-2.2 9.95-5.25 1.65-1.6 4.61-4.2 6.51-5.91 1.95-1.7 5.2-4.65 7.25-6.6 7.81-7.26 13.86-12.71 16.81-15.06 8.36-6.71 20.72-18.86 42.53-41.73 18.17-19.11 21.82-23.07 27.97-30.77 2.46-3.06 5.01-6.06 5.71-6.81.7-.7 3.1-3.55 5.3-6.4a965.49 965.49 0 0115.66-19.52c7.21-8.8 22.22-29.97 27.12-38.32 1.45-2.51 3.85-6.41 5.36-8.76 1.5-2.35 4.8-8.41 7.35-13.51 4.25-8.46 8.21-15.91 8.66-16.46.4-.5 3.65 3.2 4.1 4.65.3.85 1 4.9 1.55 8.96.6 4.1 1.4 8.95 1.8 10.76.55 2.5.9 9.05 1.2 25.36a869 869 0 00.7 23.52c.15.8.5 3.4.8 5.75.3 2.36 1.11 6.71 1.76 9.76.65 3 1.3 7.21 1.5 9.26.2 2.05.85 5.4 1.5 7.5a74.55 74.55 0 012 9.51c.45 3.15 1.4 7.16 2.05 8.96a81.93 81.93 0 012 6.25c1.65 6.56 5.86 15.56 9.66 20.82 5.1 7.1 6.7 8.65 21.76 20.81 9.76 7.91 18.27 18.01 19.07 22.72.55 3.25-1.1 6.9-6.66 14.86-2.1 3-10.85 11.21-16.61 15.51-1.5 1.15-3.85 2.95-5.25 4-4.81 3.71-9.11 6.06-16.01 8.81-3.86 1.5-8.46 3.55-10.26 4.5-14.76 7.91-14.66 7.81-23.82 14.61-3.25 2.4-12.66 11.86-15.96 16.01-1.1 1.36-3.25 3.96-4.8 5.76a256.3 256.3 0 00-14.56 19.01c-1.75 2.6-4.46 6.56-6.01 8.76-1.5 2.2-4.3 6.85-6.2 10.26-1.9 3.45-3.95 7-4.55 7.9-1.16 1.75-8.66 16.81-8.66 17.41 0 .15-.75 1.36-1.65 2.66-2.6 3.55-4.91 9.85-4.96 13.46-.05 5.05 2.61 9.35 6.61 10.55 2.45.75 5.1.3 7.75-1.2 2.16-1.25 2.56-1.9 5.76-10a95.8 95.8 0 017-14.01c1.05-1.66 3.41-5.76 5.21-9.16 7.35-13.66 19.11-30.97 28.37-41.68 2.05-2.35 5-5.91 6.6-7.86 6.56-7.95 14.06-14.06 25.17-20.51 3.1-1.8 13.66-6.61 14.51-6.61.45 0 7.36-3.25 12.46-5.85 4.95-2.5 9.66-5.55 12.01-7.66.85-.75 3.95-3.2 6.95-5.5 8.61-6.55 10.81-7.21 11.76-3.6.3 1 .65 8.5.8 16.61.25 12.41.55 16.51 1.8 25.77.85 6.3 2 12.61 2.7 14.76a86.8 86.8 0 011.96 7.15 29 29 0 001.75 5.26c.55 1.05 1.35 3.2 1.8 4.8.95 3.25 4.65 11.16 7.8 16.56 1.1 1.9 3.51 6.26 5.26 9.66a84.65 84.65 0 005.4 9.01c1.2 1.55 3.6 5.2 5.31 8.1 2.9 4.86 4.75 7.66 11.65 18.02a71.76 71.76 0 007.11 8.5c2.55 2.6 6.2 6.71 8.15 9.11 5.81 7.15 14.86 20.86 18.02 27.22 1.65 3.3 4.1 8.2 5.5 10.96a91.02 91.02 0 014.4 11.25l1.96 6.26v13.01c0 10.01-.25 14.21-.91 18.26-.5 2.9-1.55 10.56-2.4 17.01a276.83 276.83 0 01-5.45 30.28c-1.65 7.15-2.15 13.81-1.85 24.91.3 9.06.2 10.61-.5 12.11-1.05 2.15-1.8 2.4-11.66 3.75-9.26 1.26-15.26 3.01-23.32 6.81-3.25 1.55-9.3 4.05-13.46 5.5-4.1 1.5-9.15 3.41-11.2 4.26-4.71 1.95-11.26 4.2-20.82 7.2-4.1 1.3-9.41 3.2-11.76 4.25-5.3 2.36-10.71 4.31-20.01 7.31-4 1.25-9.86 3.4-13.01 4.75a300.73 300.73 0 01-15.26 5.66 599.2 599.2 0 00-24.27 8.65l-9.36 3.56c-2.3.85-4.75 1.95-5.5 2.5-.8.55-2.3 1.25-3.4 1.6a33.7 33.7 0 00-4.51 2 25.02 25.02 0 01-3.75 1.75c-2.9.85-11.86 4.91-14.91 6.81-3.5 2.1-16.26 8.45-16.96 8.45-.25 0-2.85 1.25-5.85 2.81a88.47 88.47 0 01-8.71 3.95c-1.85.65-5.8 2.25-8.86 3.5-11.2 4.8-16.11 6.61-21.01 7.91-2.75.75-6.81 2.05-9.01 2.9-5.45 2.05-18.31 8.86-25.02 13.16-3 1.9-8.1 4.85-11.25 6.45a113.54 113.54 0 00-7.76 4.36c-1.1.75-2.9 1.85-4 2.4-4.66 2.4-12.61 8.25-17.56 12.86-6.91 6.5-14.86 17.26-19.72 26.72-1.95 3.75-4.3 7.85-5.25 9.15-4.66 6.31-12.31 8.01-36.53 8.11-14.26.05-15.11 0-16.76-.95-3.95-2.3-15.26-20.97-20.01-33.03a54.73 54.73 0 00-2.31-5.25c-2.7-4.8-6.1-15.46-8.8-27.52-.5-2.35-1.5-6.3-2.15-8.76a146.43 146.43 0 01-4.36-26.01c-.5-7.81-.1-28.48.65-33.28.2-1.5 1-7.25 1.71-12.76.75-5.5 1.85-12.16 2.55-14.76a77.2 77.2 0 001.7-10.11c.3-3 .85-7.15 1.25-9.3.4-2.1 1.2-8.01 1.75-13.11.6-5.11 1.15-9.61 1.3-10.01.15-.4.5-5.5.7-11.26.25-5.8.8-12.86 1.2-15.76.4-2.9 1.1-8.41 1.55-12.26 1.25-10.86 6.76-37.63 9.91-48.28 1.55-5.11 3.7-12.86 4.85-17.27 2.96-11.4 3.76-14.06 6.76-21.76a191.2 191.2 0 007.25-22.62c.85-3.25 2.46-8.1 3.56-10.75 1.1-2.71 2.55-6.26 3.15-7.91.65-1.65 1.95-4.6 2.9-6.51 2.95-5.8 3.25-9.45 1.1-12.8-1.45-2.31-3.85-3.46-7.2-3.46-3.26 0-5.31 1-8.11 3.86-4.1 4.2-5.4 7.35-16.06 39.17a4582.67 4582.67 0 01-9.06 26.77 221.8 221.8 0 00-4.55 15.51 369.5 369.5 0 01-3.55 12.76c-.7 2.06-1.9 6.26-2.65 9.31-.81 3.1-1.71 6-1.96 6.51-.25.55-.95 3.75-1.55 7.2-.6 3.45-1.45 7.51-1.8 9.01-.85 3.25-3.25 21.26-3.25 24.21 0 1.16-.45 4.76-1 8.06-.55 3.3-1 7.21-1 8.66 0 2.5-.9 5.5-2.05 6.9-1.4 1.7-18.87-6.55-30.98-14.66-5-3.35-10.65-7.1-19.06-12.71a251.3 251.3 0 00-18.61-10.91c-4.21-2.15-8.31-2.65-10.91-1.3-2.7 1.4-11.71 10.06-13.81 13.21-1.05 1.6-3.35 5.26-5.15 8.11a270.2 270.2 0 01-7.56 11.46c-1.25 1.8-3.6 5.5-5.2 8.2a103.9 103.9 0 01-5.41 8.26c-1.4 1.85-3.75 5.2-5.25 7.55-1.55 2.36-4.4 6.46-6.3 9.11a621.03 621.03 0 00-5.81 8.01 497.25 497.25 0 01-15.41 20.66c-1.55 1.9-4.45 5.66-6.45 8.26-1.96 2.6-4.46 5.9-5.61 7.35a228.61 228.61 0 00-7.8 11.26c-.25.45-1.75 2.45-3.31 4.45a106.58 106.58 0 00-5.6 8.51c-1.5 2.65-3.65 6.15-4.75 7.76-1.1 1.65-4.21 7.2-6.91 12.45-2.7 5.21-5.3 10.31-5.8 11.26-1.95 3.81-2.05 9.36-.3 12.76a8.47 8.47 0 002.9 2.7c1.8 1 2.6 1.15 5.55.95 2.91-.25 3.71-.1 4.66.66 1.55 1.25 2.3 4.4 2.3 10.05.05 2.55.25 7.01.5 9.91.3 2.9.7 8.31 1 12.01.3 3.7.95 9.66 1.5 13.26 1.3 8.8 2.6 35.72 2.7 56.04.05 17.66-.3 22.06-2.95 35.02-2.65 13.21-3.85 23.32-3.7 30.93.2 6.7.3 7.3 1.7 10.1 2.35 4.71 6.3 6.56 11.06 5.26 2.75-.8 6.2-4.41 7.15-7.51.35-1.1.8-6.95 1.05-12.91.3-8.9.6-11.46 1.45-14.11.6-1.8 1.76-7.6 2.61-12.91l1.5-9.6-.2-29.43c-.1-22.76-.35-31.32-1-38.12l-1.35-14.51c-.31-3.16-.96-7.21-1.56-9.01-1.85-5.85-2.5-25.57-1.95-59.79l.25-14.01 2.8-4.26c1.56-2.35 3.46-5.25 4.26-6.5.8-1.25 2.85-4.1 4.55-6.26 1.7-2.2 4.45-5.8 6.11-8 1.7-2.2 5.05-6.61 7.55-9.76 7.21-9.06 11.11-14.16 13.26-17.26 1.1-1.55 3.35-4.55 5.05-6.66a83.46 83.46 0 004.46-6.1c.8-1.25 3.45-5.05 6-8.51a571.64 571.64 0 0018.66-27.12c1.46-2.3 3.66-5.5 4.91-7.15 1.2-1.65 2.9-4.25 3.75-5.76 4.2-7.65 4.65-8.25 6.35-8.4 1.36-.15 3.16.8 10.26 5.2 7.86 4.86 11.21 7.16 25.52 17.21 5.25 3.66 11.16 7.01 15.31 8.56 1.55.55 3.5 1.45 4.3 1.9.85.5 2.96 1.4 4.76 2.05 1.8.65 3.5 1.35 3.75 1.55.3.21 1.8.86 3.4 1.46 1.6.6 3.1 1.55 3.4 2.1.96 1.75 0 11.81-2.8 29.17-.7 4.4-1.6 11.36-2 15.51-.4 4.1-1.05 9.06-1.45 11.01-1.65 7.85-2.4 18.16-2.1 28.52.3 10.86.65 14.16 2.55 22.51.65 3.01 1.8 8.56 2.5 12.26 2.05 11.16 4.21 20.67 5.01 22.52.4.95 1.2 3.55 1.8 5.75.6 2.21 1.5 4.61 2.05 5.41.55.75 1.5 3 2.15 5 3.15 9.76 4.45 12.66 13.11 28.42 4.2 7.71 5.3 9.51 8.06 12.71.9 1.1 2.45 3.6 3.35 5.56 2.25 4.75 4.6 6.7 9.9 8.4 6.26 2 9.11 2.3 21.87 2.3 12.51 0 21.37-.6 26.27-1.75 10.16-2.45 14.71-2.85 17.41-1.45.9.5 2.9 1.85 4.45 3.05 4.11 3.11 4.31 4.41 1.96 11.41-1.51 4.6-1.66 5.41-1.46 10.01.2 4.4.45 5.55 2.11 9.51 4 9.65 5.85 14.71 7.1 19.51 3.05 12.06 6.26 19.76 10.46 25.27.95 1.25 3.05 4.15 4.65 6.5 3.6 5.16 4.65 6.16 7.81 7.56 4.55 2 10.45.1 12.16-3.96 2.1-5.1-.7-11.8-10.36-24.66-2.3-3.1-2.65-3.91-4.45-11.01-2.31-9.06-3.81-13.41-7.01-20.22-5.6-11.95-4.75-14.76 7.66-25.26 6-5.11 7.6-7.56 7.05-11.21-.25-1.45-1-3.1-2.05-4.51-2.2-2.9-4.6-3.65-13.06-3.95-7.16-.3-9.56-1-11.06-3.2-.65-1.05-.7-1.6-.15-3.55 1.05-3.96 5.96-13.66 8.91-17.57a80.37 80.37 0 0127.17-22.56c6.5-3.3 9.35-4.81 10.51-5.66 1.6-1.2 18.81-11.05 23.01-13.21 1.8-.9 5.61-2.4 8.51-3.35 7.5-2.4 29.27-10.41 36.02-13.26 3.16-1.35 8.56-3.65 12.01-5.15 3.45-1.5 7.71-3.3 9.51-4 1.8-.75 4.85-2.26 6.75-3.36 4.66-2.7 10.61-5.55 18.32-8.8 3.45-1.5 7.05-3.16 8-3.71 1.85-1.1 6.86-3.25 12.96-5.55 2.05-.8 5.9-2.25 8.51-3.25 2.6-.95 5.2-2.1 5.8-2.5.6-.4 2.85-1.15 5-1.75 3.51-.91 7.11-2.11 21.97-7.31 1.9-.7 4-1.55 4.65-2 1.15-.75 10.36-4 16.11-5.71a187.25 187.25 0 0016.77-6.25c2.2-.95 7.4-2.8 11.5-4.15 6.81-2.25 16.02-5.51 29.53-10.36 2.75-1 7.8-3.15 11.25-4.75a114.16 114.16 0 0119.77-7.41c4.8-1.3 5.45-1.35 16.76-1.3 12.51.05 16.46.55 30.52 3.9 2.9.65 6.71 1.5 8.51 1.8 6.9 1.25 21.86 6.46 30.17 10.56 11.31 5.56 11.76 6.11 13.56 16.41 1.25 6.96 4.3 17.82 5.55 19.87.7 1.1 3.35 7.3 5.51 12.96.65 1.65 1.85 4.4 2.7 6.1.85 1.65 1.55 3.2 1.55 3.4 0 .25.9 2.26 1.95 4.46 1.1 2.25 2.4 5.05 2.95 6.3 3.55 7.96 6.36 13.51 8.71 17.36 1.5 2.41 3.95 6.66 5.4 9.41 1.45 2.75 3.15 5.65 3.7 6.51.61.8 2.41 3.75 4.01 6.5 1.65 2.75 5.25 8.51 8.05 12.76 2.76 4.25 6.36 9.91 7.96 12.51 1.55 2.6 3.25 5.3 3.75 6 .5.7 1.9 2.96 3.1 5.01 1.2 2.05 3.81 6 5.86 8.75 5.95 8.06 7.1 11.11 6.1 16.06-.8 3.81-2.85 6.51-11.46 15.02-7.25 7.1-8.45 8.05-10.85 8.15-1.45.05-2.51-2.55-3.46-8.61-.4-2.7-1.05-5.55-1.45-6.25a54.4 54.4 0 01-2.2-5.6c-4.6-12.66-9.11-23.82-10.76-26.37-2.5-3.96-7.15-5.81-10.75-4.31-2.41 1-3.51 1.96-4.76 4.41-1.3 2.5-1.4 7.8-.2 11.71 1 3.3 1.1 5.55.2 6.75-.5.7-.9.8-1.65.4l-4.95-2.5c-2.2-1.05-7.96-4-12.76-6.51-9.21-4.75-13.26-6.25-30.82-11.3a170.66 170.66 0 00-26.72-5.81c-4-.6-10.16-1.5-13.76-2.05-19.06-2.8-60.09-2.8-82.06.05a308 308 0 01-11.51 1.25c-11.26.9-29.62 4.6-42.03 8.51-4.65 1.5-10.8 3.3-13.66 4-2.85.7-8.35 2.5-12.26 3.95-3.9 1.5-11.15 4.01-16.11 5.56a153.46 153.46 0 00-15.26 5.75c-3.45 1.6-8.85 4.05-12.01 5.46-3.15 1.45-7.1 3.35-8.75 4.25-1.65.95-6.16 3.4-10.01 5.55-8.36 4.56-9.66 5.31-13.36 7.81a25.1 25.1 0 01-3.75 2.3c-.5.25-1.9 1.05-3.15 1.85-2.16 1.4-3.96 2.6-17.27 11.46-12.05 8.06-24.26 18.86-32.57 28.87-6.8 8.21-8.16 10.56-8.91 15.51-.8 5.46 2.76 10.01 7.76 10.01 4.3 0 7.16-2.15 12.96-9.71 6.3-8.2 13.66-15.46 21.66-21.46 4.91-3.66 15.92-11.11 17.97-12.16.9-.45 4.8-2.9 8.65-5.41 3.86-2.55 9.26-5.8 12.01-7.3a243.2 243.2 0 008.76-5.01c3.55-2.2 14.46-7.5 15.36-7.5.25 0 1.25-.6 2.3-1.3 1.05-.7 3.15-1.7 4.7-2.25a31.7 31.7 0 004.36-1.85c.85-.5 5.25-2.16 9.8-3.56 4.56-1.45 9.71-3.3 11.51-4.1 3.4-1.5 8.36-3.1 16.76-5.45 10.01-2.76 17.57-5.06 20.77-6.26 5.85-2.2 19.06-4.8 33.27-6.5 3.6-.45 8.46-1.1 10.81-1.5 2.35-.4 8.76-1.01 14.26-1.26 5.45-.3 12.21-.75 14.96-1 6.51-.6 22.47-.6 27.27 0 2.05.25 7.91.7 13.01 1 13.11.71 37.68 4.86 48.43 8.21 17.17 5.4 26.82 9.31 35.63 14.56 2.05 1.25 4.75 2.75 6 3.45 2.15 1.15 5.16 3.16 9.91 6.56 1.15.8 3.55 2.4 5.35 3.5 1.85 1.1 4.86 3.2 6.76 4.6 4.85 3.76 5.85 5.91 6.45 14.46.7 8.91 1.05 10.26 4.81 17.52 4.1 8 4.8 8.9 7.25 9.9 3.3 1.31 6.01 1.06 8.81-.85 3.55-2.4 5.3-5.3 6.65-11.15 2.4-10.16 6.56-16.52 20.12-30.53 5.85-6.1 9.05-9.8 10.55-12.36 2.81-4.8 4.96-12.35 5.01-17.61.1-7.9-2.7-13.91-13.16-27.77-1.55-2.05-5.16-7.6-7.96-12.26-2.8-4.7-6.25-10.1-7.65-12.11-1.45-2-3.51-5.1-4.61-6.95-1.1-1.8-3.35-5.35-5.05-7.91-1.65-2.5-4.3-7.05-5.9-10.05a86.37 86.37 0 00-4.56-7.76c-.85-1.25-2.2-3.4-3-4.75-2.55-4.46-10.26-19.92-11.61-23.27-.7-1.8-3.55-8.11-6.4-14.01-5.06-10.66-7.96-18.76-9.26-25.87-.3-1.7-1.05-4.9-1.75-7.1a48.76 48.76 0 01-1.5-6.41c-.6-4.6-1.65-7.35-3.35-9-2.15-2.06-26.52-14.26-31.38-15.72-2.05-.6-5.95-1.6-8.75-2.2-2.8-.65-8.56-2.05-12.81-3.2a421.48 421.48 0 00-16.76-4.25c-2.4-.55-3.76-1.15-4.36-1.95-1.65-2.11-2.05-6.21-2.1-19.87-.05-11.46.1-14.16 1.05-19.76.6-3.61 1.55-7.86 2.16-9.51 1.5-4.3 1.95-6.5 2.75-13.91.4-3.65 1.15-9.21 1.7-12.36.5-3.15 1.2-8.56 1.55-12.01.3-3.45.9-8.3 1.3-10.76.35-2.5.7-7.45.7-11.1 0-11.31-3.3-25.97-7.8-34.68-.96-1.8-2.96-6-4.46-9.41a90.6 90.6 0 00-6.15-11.35 451.48 451.48 0 01-5.76-9.11c-1.35-2.15-3-4.7-3.75-5.7-6.7-8.96-9.96-12.96-14.36-17.47-6.55-6.75-9.71-10.85-14.16-18.26-2-3.3-5.5-8.76-7.75-12.11-10.46-15.61-21.17-36.53-23.37-45.68-.55-2.35-1.35-5.36-1.75-6.71-.4-1.3-1.2-6.6-1.8-11.76-.55-5.1-1.4-10.65-1.8-12.3-.66-2.46-.86-7.91-1.16-29.02-.2-14.52-.6-27.17-.9-28.63-.3-1.5-.4-4.15-.15-6.45.55-5.95 0-8.76-2.6-12.61-1.2-1.85-3.25-4.95-4.5-6.85-2.15-3.31-3.05-4.41-9.81-11.51-3.6-3.86-12.96-11.91-18.81-16.26-6.51-4.86-10.46-9.31-12.86-14.52a124.62 124.62 0 01-10.11-33.57c-.45-2.65-1.8-9.86-3.05-16.06-2.4-12.01-2.9-16.06-3.75-28.92-.3-4.56-.85-11.21-1.25-14.76-.4-3.61-.75-10.01-.75-14.26 0-5.21-.35-10.06-1.05-14.76-1.56-10.66-5.21-28.32-6.31-30.53-.55-1.1-1.15-2.7-1.35-3.5-.45-1.8-4-9.81-7.26-16.26-2.35-4.6-2.55-4.8-5.4-6.25a81.74 81.74 0 00-5.85-2.71c-4.51-1.9-7.16-5.2-9.46-11.9-1-2.96-2.2-7.21-2.65-9.41-.75-3.75-2-8.16-6.76-23.27-1.1-3.45-3.1-8.4-4.45-11.01-5.65-10.85-6.2-12.16-6.4-15.01-.25-3.2.1-4.5 2.8-11.01 1.1-2.65 3.05-7.95 4.35-11.75 2.3-6.86 2.35-7.11 2.1-11.76-.15-2.8-.7-6.21-1.35-8.26-1.45-4.65-12.11-27.27-14.51-30.77-.45-.7-2.5-4.4-4.5-8.26-2-3.85-5.06-9.25-6.76-12.01-9.3-15.11-13.46-22.51-18.41-33.02-1.3-2.75-3-6.15-3.75-7.55-.75-1.41-2-3.96-2.8-5.76-2.21-4.7-6.86-14.11-7.36-14.76-.25-.3-1.95-3.55-3.75-7.2a300.86 300.86 0 00-6.41-12.01 156.7 156.7 0 01-5-9.26c-1.75-3.65-4.95-8.56-14.51-22.27-1.8-2.6-4.8-7-6.66-9.75-1.85-2.76-4.6-6.71-6.2-8.76-1.55-2.05-4.8-6.9-7.21-10.76a212.9 212.9 0 00-5.5-8.55c-3.3-4.36-5.75-10.91-6.75-18.22-.25-2.05-.85-5.7-1.3-8.1-.91-4.71-.71-6.51 1.55-12.41 1.15-3.05 3.05-12.56 4.55-22.77.7-4.7 1.45-9.3 1.7-10.26 1-3.55 3.8-7.4 10.21-14.01 7.55-7.75 12.76-13.56 15.66-17.51 2.2-3.05 8.31-13.96 10.56-19.01 2.25-5.06 5.5-15.36 6.3-19.92 1.2-7.2 2.45-8.15 11.81-9 7.45-.7 16.96-2.95 20.86-4.91a32.72 32.72 0 005.21-3.55c4.15-3.55 6.35-4.55 13.41-6.15 8.65-1.95 14.86-3.86 17.06-5.21.95-.55 4.35-2.3 7.5-3.85 9.51-4.65 14.77-8.7 16.82-12.9 1.5-3.16 1.5-5.11 0-8.31-1.5-3.3-4.86-6.21-8.86-7.71-3.9-1.45-7.56-3.5-7.35-4.05.45-1.2 10.9-8.06 19.41-12.76 2.9-1.55 6.6-3.8 8.25-5 1.66-1.16 5.21-3.36 7.86-4.96 4.7-2.75 13.51-8.86 18.61-12.9 11.61-9.17 24.37-24.38 28.67-34.18 1.6-3.66 4.51-12.66 5.91-18.27.45-1.8 1.35-4.95 2-7a74.13 74.13 0 002-9.5c.95-7.16 3.5-17.82 4.7-19.82 1.1-1.86 6.81-5.96 9.46-6.9 3.15-1.16 7.36-3.71 13.26-8.16 3.1-2.3 6.5-4.6 7.66-5.16 2.55-1.25 6.3-1.25 9.05 0 5.21 2.35 9.06 1.75 13.36-2 1.6-1.4 4.05-3.1 5.46-3.8 4.35-2.2 5.85-3.65 7.45-7 2.25-4.86 2.85-7.76 3.4-16.27.5-8.15 0-22.82-.95-26.97-.6-2.7-4.85-15.31-6.95-20.56-2.25-5.6-2.4-7.06-1.05-8.91.6-.85 2.5-2.4 4.15-3.5 7.6-4.96 13.01-10.56 16.66-17.32l1.9-3.5v-7.25c0-7.06-.05-7.3-1.4-9.61-4.5-7.45-11.61-10.7-19.06-8.7-1.75.5-3.9.8-4.86.7-1.55-.16-1.75-.36-2.55-2.66-.45-1.4-1.05-4.1-1.4-6.1-.8-4.86-3.3-9.06-7.55-12.51-5.46-4.45-12.11-5.75-19.22-3.85-4.45 1.2-7.4 1.75-7.7 1.4-.15-.15-.25-1.55-.2-3.1.1-3.4 2.4-9.11 5.9-14.67a198.19 198.19 0 0113.06-16.96c2.2-2.45 8.96-12.6 10.71-16.26 2.4-4.85 3.6-10.26 3.65-16.51 0-4.75-.15-6-1.3-9.2-1.5-4.21-3.5-7.41-7.61-12.07-3.6-4.1-5.05-6.3-5.5-8.3-.3-1.45-.1-1.8 2.55-4 8.21-6.96 9.91-9.21 12.16-16.27 2.7-8.45 2.65-22.31-.05-27.72-2.6-5.1-7.45-8.75-12.76-9.55-5.1-.75-11.41 2.1-13.16 5.95-2.05 4.4-.8 9 3.21 11.96 3.4 2.55 4.5 4.8 4.2 8.86-.3 4.2-2.05 7.75-5.01 10.15-4.55 3.75-8.8 3.65-11.25-.25-1.4-2.15-4.61-7.9-7.41-13.1-4.3-8.06-4.65-8.56-12.41-17.67-2.4-2.85-4.7-5.86-5.15-6.7-.95-1.86-.5-3.46 2.85-9.51 1.3-2.35 3-5.7 3.7-7.46.75-1.7 1.6-3.55 2-4.15.36-.6.81-1.6 1.01-2.3.2-.7 1.05-2.8 1.85-4.66 1-2.3 2.05-6.55 3.2-12.75 1.65-9.01 1.7-9.81 1.7-21.72 0-11.36-.1-12.91-1.25-18.36-1.5-7.06-2.2-8.91-4.35-11.36-6.06-6.86-15.91-3.2-16.77 6.15-.2 2.3.15 4.46 1.66 10.41 2.5 10.06 2.55 14.46.05 29.22-1.46 8.36-2.21 11.46-3.46 14.26-2.1 4.65-2.35 4.95-3.25 4.2a7.87 7.87 0 01-1.5-2.1c-1.1-2.15-.6-12.36 1.1-22.06.85-4.96 1.45-10.71 1.75-17.02.25-5.25.7-10.8 1.05-12.35.65-2.76.6-2.9-.5-4.1-1.5-1.6-3.55-9.06-3.55-12.87 0-2.4.2-3 1.7-4.75 3.55-4.15 4.55-7.7 5.2-18.01.46-7.1-.5-17.87-2.15-24.42-.95-3.8-2-6.35-4.35-10.5-5.7-10.17-5.1-7.06-5.45-28.33-.25-17.86-.35-19.06-1.65-25.27-1.21-5.8-1.76-7.2-4.86-13.2-4.45-8.46-6.9-11.91-12.06-16.87-10.15-9.7-13.76-11.9-29.87-18.16-2.85-1.15-5.4-2.05-5.75-2.05-.3 0-1.7-.55-3.1-1.2-2.21-1-2.66-1.5-3.46-3.6-2.05-5.36-6.2-10.56-12.51-15.72-5.95-4.8-8.2-5.85-15.21-7l-3.7-.6-8.3-8.06c-7.96-7.7-12.01-10.86-22.27-17.21-3.9-2.45-5.95-4.7-7.01-7.7-.5-1.5-2.45-5.41-4.3-8.71a71.07 71.07 0 01-5.7-13.26c-1.35-4-3.3-9.86-4.41-13.01-1.1-3.16-3.25-9.36-4.75-13.76-3.1-8.96-4.65-12.21-7.9-16.37-7.81-10-23.47-15.16-38.38-12.7-5.86.95-8.76 1-10.31.15-1.4-.7-4-5.16-5.9-10.11-.75-1.95-2-4.5-2.81-5.7-.75-1.26-1.4-2.46-1.4-2.7 0-.26-1.05-1.9-2.3-3.71-3.1-4.35-12.16-11.3-17.46-13.4-1.1-.46-2.8-1.21-3.75-1.71-3.31-1.75-13.06-4.2-18.27-4.55-5.35-.4-7.1-.9-9.6-2.76-.85-.7-4.01-2.5-7.01-4.1a169.96 169.96 0 01-9.55-5.5c-5.16-3.4-11.76-6.5-18.87-8.96-4.95-1.7-6.15-1.9-12.01-2.1-3.75-.1-8.1.05-10.25.35-5.61.9-20.97 2.05-22.47 1.75-.7-.15-4.1-1.6-7.55-3.2-9.61-4.5-15.67-6.3-23.82-7.2-12.61-1.4-14.26-1.8-22.92-5.36-11.01-4.6-25.02-9.8-27.72-10.4-3.25-.7-17.01-.7-20.11-.06-2.75.65-19.22 5.76-28.52 8.86-3.7 1.25-9.36 3.5-12.51 5-12.51 5.9-21.17 8.66-27.27 8.66-5.65 0-7.25-.55-22.27-7.36-9.45-4.35-20.31-9.95-22.76-11.8-1.65-1.3-5.26-3.96-8.01-5.96-2.75-1.95-6.55-4.9-8.5-6.5-3.66-3.1-15.51-9.31-19.77-10.41-1.2-.35-3.25-1.1-4.5-1.75-1.3-.65-4-1.4-6.05-1.75-5.86-.86-21.02-1.06-26.72-.3zm24.76 20.32c2.06.55 5.26 1.6 7.06 2.3 4 1.5 13.31 7.5 20.21 13.06 2.81 2.2 5.71 4.4 6.51 4.95.85.5 3.65 2.46 6.25 4.26 2.6 1.8 6.46 4.25 8.61 5.4 4.65 2.55 5.1 3.05 4.7 5.2-.35 1.8-2.7 3.8-6.55 5.6-2.3 1.06-4.36.81-12.51-1.5-5.71-1.6-16.01-2.44-24.27-2.1-9.16.46-9.56.6-14.36 6.01l-2.1 2.4-1.9-.8a33.24 33.24 0 01-4.66-2.7 72.74 72.74 0 00-23.26-10.76c-4.91-1.25-6.36-2.05-7.51-4.3-.6-1.15-.5-1.65 1.15-5a49.48 49.48 0 014.66-7.26c1.5-1.95 4-5.3 5.55-7.5 3.2-4.56 3.85-5.26 6.66-6.71 3.05-1.55 6.8-2 14.76-1.8 5.4.15 8.2.45 11 1.25zm177.63 22.32c4.55 1.05 8.86 2.65 15.51 5.85 12.06 5.75 24.57 9.6 33.12 10.1 2.86.2 6.06.56 7.16.86 2.8.65 10.16 3.45 18.76 7.05 6.81 2.86 7.51 3.06 11.26 3.06 2.8 0 5.4-.4 8.76-1.36 3.5-1 5.9-1.35 9.05-1.35 2.4 0 6.66-.25 9.41-.5 6.25-.65 9.11-.2 14.41 2.3 5.95 2.8 17.71 9.21 19.61 10.66 2.1 1.55 3.56 2.4 11.61 6.4 7.76 3.91 11.36 4.86 16.21 4.41 3.51-.3 3.81-.25 8.56 1.75 8.16 3.5 11.71 5.46 14.46 8.06 3 2.85 4.7 5.8 8.01 14.2 3.6 9.01 7.15 13.67 12.65 16.47 4.71 2.4 9.81 2.75 20.27 1.55 10.36-1.25 15.31-.25 20.26 4 3.81 3.3 5.26 6.7 11.36 26.32 3.65 11.71 6.11 18.42 9.76 26.72 2.6 6 3.25 8 3.75 12.36.6 5.15 4.05 8.26 13.11 11.6 7.3 2.76 11.36 5.46 19.71 13.12 4.11 3.7 13.01 13.56 17.02 18.66 3.15 4.06 10.45 16.61 11.2 19.27.8 2.95 1.75 11.9 1.75 16.76 0 1.8-.55 6-1.25 9.3a64.32 64.32 0 000 26.22c1.15 5.7 1.25 7.2 1.25 19.27-.05 14.06-.15 15.16-2.5 28.07-2.2 11.66-2.35 14.76-1.1 18.41.6 1.6 2.6 5.1 4.51 7.76 3.75 5.3 6.2 9.15 9.05 14.1 4.56 7.86 15.01 12.07 20.92 8.41.9-.55 3.05-3.05 4.7-5.55 2.85-4.2 4.75-6.26 9.46-10.26 3.7-3.1 7.55-3.15 11.55-.05 6.71 5.1 11.01 10.7 15.22 19.52 2.55 5.45 2.9 8.8 2.6 25.92-.2 12.95-.35 15.5-1.4 20.56-.95 4.8-1.15 7.3-1.2 15.26 0 8.9.1 9.8 1.4 14.51a79.26 79.26 0 004.15 10.7c1.5 3.11 3.05 7.21 3.45 9.17 1.05 4.8 1.65 5.75 6.61 10.3 8.4 7.7 15.71 17.17 19.71 25.47 1.05 2.3 2.85 6.1 4 8.5 2.1 4.41 4.96 7.71 10.61 12.32 1.3 1.05 3.35 3.4 4.55 5.25 1.2 1.85 4.61 5.95 7.56 9.1 7.55 8.11 9.56 10.46 10.46 12.72 1.6 3.8.7 8.6-2.81 14.8-1.8 3.16-10.1 13.87-15.86 20.52-2.55 2.95-4.95 6.56-8 12.26-1 1.85-1.65 3.25-4.81 10-1.5 3.26-2.2 7.86-2.6 16.77-.3 7.96.05 10.6 2.2 16.16l1.36 3.45-.86 3.16c-1.3 4.8-1.1 9.25.66 15.26 1.55 5.55 2.45 7.1 7.15 12.46 3.4 3.85 6.15 6.1 11.86 9.7 2.05 1.3 4.85 3.15 6.2 4.1 1.3.96 3.66 2.1 5.16 2.56 1.5.45 3.45 1.45 4.35 2.25 1.4 1.2 1.75 2 2.45 5.55.45 2.3 2.1 7.2 3.65 10.91 3.61 8.66 6.16 16.26 7.01 21.02.8 4.45.9 14.8.2 19.76-.55 3.45-2.45 7.66-3.65 7.86-.35.05-4.66.1-9.61.1-8.21.05-9.26.15-11.91 1.2a30.36 30.36 0 00-5.75 3.4c-8.86 6.86-12.01 9-21.27 14.41-8.45 4.95-10.36 6.96-14.26 14.66-3.5 6.96-5.35 13.31-6.85 23.42-2.4 16.36-7.41 30.42-13.91 39.03-5.81 7.7-18.87 19.56-27.37 24.86-2.05 1.3-4.66 3-5.76 3.76-1.05.75-3 2-4.25 2.7a689 689 0 00-17.01 10.06c-1.5.95-5.1 3.05-8.01 4.65-2.9 1.6-7.65 4.5-10.6 6.45a662.57 662.57 0 01-8.51 5.56c-4 2.5-8.81 7.4-11.26 11.4-1.55 2.6-1.9 3.66-2.05 6.41-.25 4.2.6 6.1 4.1 9.36 2 1.8 2.71 2.85 2.96 4.25.3 2.05.45 1.95-5.91 3.35-4.45 1-12.21 4.86-15.46 7.71-2.4 2.05-4.15 3.05-8.06 4.55-4.65 1.75-5.5 1.9-12.5 2.25-6.56.35-10.36.8-24.27 2.96-1.5.25-3.65.3-4.75.1-1.81-.3-2.01-.45-2.36-2.31-.35-1.55-.15-2.85.8-6 2.71-8.6 5.31-21.37 6.06-29.52.2-1.95.85-5.56 1.5-8 1.2-4.56 3.6-20.02 5-32.28 1.3-11.5 3.11-19.77 5.26-24.52 1.65-3.6 2.05-5.05 2.45-9.65.55-5.66 2.05-10.66 7.25-24.12 3.31-8.4 6.21-21.37 7.81-34.33.25-2.35.85-5.55 1.25-7.15 1.45-5.5 1.85-10.06 2.2-23.12l.3-13.06 2.25-2.85c1.25-1.55 3.21-4 4.36-5.46 6.9-8.55 15.76-23.71 19.16-32.87.8-2.05 1.75-4.45 2.15-5.25 4.4-8.66 6.26-14.41 9.36-28.52 1.4-6.36 3.05-14.01 3.75-17.12 1.15-5.25 1.25-6.55 1.25-19.5V672l-2.45-12.5c-1.35-6.91-3.4-17.97-4.5-24.68a389.71 389.71 0 00-3.06-16.26c-.5-2.25-1.2-6.7-1.45-9.85-.4-4.3-.85-6.56-1.85-9.01-1.65-3.9-1.7-6.3-.25-13.26 2-9.86 3.65-21.97 3.45-25.37-.3-5.9-4.05-9.66-9.45-9.6-3.3.04-6.06 1.5-7.26 3.8-.45.8-1.2 4.25-1.7 7.6a84.9 84.9 0 01-1.2 6.8c-.15.4-.75 4-1.3 7.96-.7 4.6-1.45 8-2.1 9.26-.6 1.15-1.7 3.95-2.45 6.3-3.91 12.16-6.36 16.61-12.46 23.17-4.36 4.7-7.31 6.8-21.92 16.01-7.9 5-19.41 13.61-24.37 18.26-2.75 2.6-5.8 5.06-6.75 5.5l-2.1 1.01c-.6.3-1.9-3.4-1.9-5.3 0-1 .5-4.5 1.05-7.76 1.05-5.85 1.05-6.1.25-10-.5-2.2-1.55-5.96-2.35-8.31-.9-2.75-1.65-6.2-1.95-9.46-.56-6.05-1.11-7.35-4.76-11.4-3.6-4.06-5.05-4.71-10.61-4.71-7 0-11.35 1.7-22.31 8.55-4.55 2.9-5.81 3.46-7.61 3.46-2.4 0-2.1.25-8.25-7.5-4.46-5.66-13.51-12.77-23.92-18.72-1.55-.9-4.4-2.55-6.35-3.65a35 35 0 00-4.76-2.4c-.7-.2-2.45-.96-3.9-1.66-2.6-1.25-3.65-2.4-9.71-10.25-1.75-2.26-6.95-6.2-9.9-7.51-2.61-1.2-5.51-1.3-19.27-.65-6.15.3-9.9.25-11.91-.15-5.15-.95-18.21-6.7-22.36-9.8-3.05-2.26-14.46-13.77-15.31-15.37a7.08 7.08 0 01-.6-4c.3-3.1 2.1-5.4 6.35-8.26 4.4-2.9 5.4-3.95 6.26-6.55 1.1-3.1 1-4.36-.5-8.9-1.91-5.96-4.66-8.61-13.96-13.37-5.71-2.95-15.47-5.55-25.02-6.65-3.86-.4-7.76-1.1-8.66-1.5-2.05-.9-3.3-3-4.4-7.41-.8-3.4-3.35-10.9-4.75-14.06-1.31-2.85-3.46-5.95-6.81-9.66-2.8-3.15-4.05-4.05-7.56-5.75-3.95-1.9-4.55-2.05-9.55-2.25-4.05-.15-6.31.05-9.61.8-5 1.1-6.4.8-9.46-2.1-12.6-12.01-28.02-19.07-47.13-21.57-4.25-.55-6.45-1.1-7.15-1.7-.55-.45-2.26-1.95-3.71-3.25-6.15-5.36-8.25-5.8-29.82-6.26l-17.01-.35-8.01-2.55c-21.86-7-20.91-6.8-30.02-5.15-3 .55-8.05 1.25-11.2 1.55a45.77 45.77 0 00-10.31 2.05c-2.45.8-6.06 1.8-8.01 2.2-9.05 1.9-17.16 4.9-28.77 10.56-15.16 7.4-21.26 11.8-30.62 21.86-8.31 8.91-12.46 15.67-15.71 25.32-1.4 4.2-1.45 4.46-1.5 16.56-.1 13.91-.1 13.91-4.05 17.57l-5.11 4.9a30.63 30.63 0 01-5.55 4.2 50.92 50.92 0 00-9.26 6.36c-.8.7-2.35 1.65-3.35 2-3.25 1.15-5.05.15-10.96-5.9-7.4-7.61-13.36-15.97-16.41-22.97-2.2-5.06-6.5-18.87-9.36-30.02-2.1-8.2-5.7-11.81-10.95-10.91-2.76.45-3.56.9-7.26 4.5a380.3 380.3 0 01-13.71 11.66c-17.21 14.11-21.16 17.51-28.02 24.32a189.86 189.86 0 00-19.81 23.01c-1.75 2.46-4.06 5.5-5.06 6.76-1 1.25-3.55 4.95-5.65 8.26-2.1 3.3-4.8 7.4-5.96 9.1-1.15 1.7-3.1 4.86-4.3 7a329.6 329.6 0 01-7.4 12.82 29.1 29.1 0 00-2.2 4.5c-.55 1.4-3.26 7.1-6 12.66-2.71 5.55-4.96 10.2-4.96 10.4 0 .76-4.6 11.92-7.16 17.37a103.99 103.99 0 00-4.25 10c-2.4 6.61-4.6 12.12-5.3 13.22-.8 1.25-3.4 7.15-5.56 12.76-1.9 4.9-5.1 11.5-5.6 11.5-.2 0-1.1-.3-2.05-.6-1.46-.55-2.36-1.75-6.56-8.9-7.3-12.26-7.35-12.41-8.75-16.76-3.36-10.46-3.36-23.17 0-41.54.65-3.65.75-6.95.55-18.26-.2-13.46-.25-13.96-2.06-22.41-1.25-6-1.7-9.36-1.5-10.76.15-1.15 1.35-4.25 2.6-6.86 1.8-3.7 3.1-5.55 5.86-8.3 3.4-3.46 3.6-3.6 7.5-4.46 2.2-.45 5-1.2 6.26-1.6 4.8-1.65 9.56-8.2 10.46-14.46 1.4-9.7 1.65-17.86.8-29.27-.85-12.2-.9-12.4-3.46-19.71-3.85-11.16-6.45-15.91-13.4-24.82-6.36-8.16-9.96-14.66-12.11-22.02-1-3.25-.45-5.2 2.7-9.7 3.55-5.16 7.2-13.51 10.5-23.97a96.8 96.8 0 012.2-6c3.06-7.41 5.76-31.13 5.16-45.69-.25-6.35-.6-8.56-2.3-15.66-2.95-12-2.7-15.91 1.55-23.27 2.7-4.6 3.2-5.15 5.45-5.75 1.7-.45 2.26-.3 6.06 1.45 5.3 2.55 9.56 3.3 16.66 2.9 5.4-.3 11.5-1.6 18.76-3.95 3.3-1.05 16.61-8.1 21.17-11.16 1.4-.95 4.35-3.3 6.55-5.2 4.6-4 29.37-29.22 33.23-33.83 4.95-6 11.05-10.55 21.01-15.86 2-1.05 5.51-3.1 7.76-4.55 6.25-4.1 7.3-4.66 12.91-7.16 8.8-3.9 13.31-5.65 18.11-7.05a62.7 62.7 0 007.6-2.65c3.56-1.56 12.01-8.76 13.51-11.46 1.41-2.6 1.25-8.16-.35-12.91-.7-1.95-1.1-3.8-.95-4.06a8.7 8.7 0 012-1.35c2.61-1.3 7.96-.75 11.01 1.1 3.35 2.1 4.31 3.86 5.01 9.16 1.05 8.1 2.95 11.41 8.05 13.91 2.3 1.15 3.4 1.35 6.76 1.3 3.45 0 4.65-.25 8.75-1.95 2.6-1.05 6.11-2.8 7.76-3.95 6.7-4.45 16.11-15.56 25.02-29.42 3.55-5.56 10.65-10.21 17.81-11.71 4.2-.85 12.71-1.05 21.51-.5 6.11.4 7.26.35 11.26-.6a69.06 69.06 0 019.21-1.3c7.4-.4 17.16-2.75 25.77-6.2 5.1-2.06 9.25-3.36 13.01-4.06 6.95-1.3 13.25-3.15 26.21-7.6 14.36-4.91 20.57-6.46 24.07-5.96 6.66.95 23.22 4.6 27.77 6.15 8.46 2.86 24.07 11.01 32.82 17.12 4.21 2.95 9.06 6.55 10.71 7.95 1.65 1.45 4.35 3.7 6.01 4.96 1.65 1.3 4.2 3.35 5.65 4.55 4.45 3.65 9.21 3.45 12.36-.4 5.1-6.26 2.2-13.36-8.76-21.52-1.5-1.1-5.35-4.05-8.5-6.55-7.21-5.7-10.21-7.76-17.77-12.11-9.25-5.4-18.01-9.66-22.26-10.9-.7-.2-2.5-1-4-1.76a30.78 30.78 0 00-5.51-2c-1.5-.35-4.65-1.15-7-1.75-2.36-.65-6.71-1.55-9.71-2a75.16 75.16 0 01-9.86-2.3 35.3 35.3 0 00-9.1-1.76 65.25 65.25 0 01-5.76-.5c-1.35-.25-5.6-4.15-5.6-5.05 0-1.1 2.95-2.55 5.9-2.85 1.6-.2 6.21-1.05 10.36-1.9l7.45-1.5 3.96-2.9c2.55-1.9 5.1-3.36 7.25-4.06 1.85-.6 6.61-2.65 10.56-4.55 4-1.9 10.86-4.66 15.26-6.16a307.7 307.7 0 0012.06-4.2c3.45-1.35 15.06-4.55 18.76-5.2 2.7-.45 6.41-.3 9.51.45zM1155.22 67c9.76 1.45 24.82 6.06 30.92 9.46 5.86 3.2 17.62 16.66 24.57 28.07 1.1 1.75-.05 4.05-2.6 5.4-1.8.9-2.65 1-6.6.75-2.46-.2-6.41-.55-8.71-.85-7.26-.9-18.56.7-26.72 3.8-5 1.9-11.11 5.11-14.16 7.41-2.75 2.1-8.16 8.4-10.26 11.96-3.05 5.25-3.65 6.16-6.4 9.6-3.1 3.96-8.86 9.76-9.66 9.76-1.4 0-4-2.35-5.45-4.9-2.45-4.25-5.16-7.75-7.31-9.46-3.55-2.75-8.7-5.6-11.31-6.15-7.1-1.55-13.15-2.15-21.56-2.2-8.21-.05-9.01-.15-9.51-1-.45-.7-.4-1 .15-1.2.75-.25 4.81-3.86 10.86-9.66 4.05-3.85 8.36-9.86 12.31-17.21 4.25-7.86 5.5-9.86 9.36-14.86 4.35-5.66 5.35-6.7 8.55-8.91 11.76-8 29.12-11.9 43.53-9.8zm84.81 10.51c2.45.45 5.71 1.4 7.26 2.1 1.5.65 4.65 1.75 7 2.4 10.91 3.1 14.31 4.36 16.86 6.1 3.21 2.21 3.36 2.41 2.61 3.61-1.35 2.2-5.36 3.65-15.56 5.6-2.96.56-7.56 1.7-10.21 2.5-5.26 1.6-7.16 1.6-11.06-.04-3.6-1.55-8.51-4.9-10.31-7.1-5.05-6.16-9.35-12.47-9.35-13.62 0-.4.5-1.25 1.05-1.8 1.05-1.05 1.4-1.05 9.15-.8 4.41.15 10.06.6 12.56 1.05zm528.93 194.44c10.95 2.8 22.66 11.36 29.27 21.42 5.15 7.8 6 12.2 6.05 31.12.05 14.61-.7 25.22-2.35 33.67-.4 2.15-.75 4.9-.75 6.1 0 4.01 2.75 8.46 6.05 9.67.7.3 2.61.64 4.21.85 2.15.3 3.2.7 4.05 1.6 2.3 2.5 2.1 8.7-.35 10.1-1.25.7-1.45.6-6.25-3.1-5.51-4.2-7.86-5.35-13.86-6.9-5.86-1.5-6.76-2.36-9.36-8.81-3.35-8.26-3.2-9.7 2.1-25.42a54.4 54.4 0 002.45-23.96c-.45-3.7-.95-5.36-3-9.51-3.2-6.46-8.31-12.31-11.91-13.51-4.65-1.6-9.21-.5-11.61 2.8-3.05 4.15-2.45 8.06 2.15 13.41 3.51 4.05 4.81 6.55 5.36 10.2.8 5.66-.7 12.57-5.76 26.63-2.55 7.1-2.2 13.86 1.21 23.36 2.15 6.06 2.45 9.06 1.05 11.76a6.55 6.55 0 01-3.26 3.2l-2.2 1.06-1.8-1.1c-2.3-1.46-6.1-7.51-6.85-11.01-.7-3.26-.3-7.86 1.1-13.06.6-2.3 1.35-8.3 1.95-15.41 1-11.56 1-11.76 0-22.77-.6-7-1.35-12.41-2-14.61-1.3-4.6-1.25-7.86.25-12.61 1.4-4.45 2.75-14.01 2.75-19.37 0-3.95.4-4.8 2.75-6.05 2-1 3.8-.95 8.56.25zm-549.49 152.66c1.7 1.3 1.7 3.05.05 10.36-1.2 5.6-3.1 10.06-5.96 14.1-4.65 6.61-5.1 11.22-1.5 15.42 1.95 2.3 4.46 3.15 7.86 2.6 2.7-.4 4.9-2 8.2-5.85 3.51-4.15 7.71-8.2 8.16-7.9.2.14 1 1.4 1.75 2.84 2.9 5.66 7.06 8.41 11.21 7.46 3.1-.7 5.2-2.8 7.85-7.8l2.36-4.5.55-9.37c.45-7.8.7-9.5 1.45-10.25.7-.7 1.95-.9 6.3-1.05 4.66-.2 5.76-.05 7.76.8 2.15 1 2.3 1.15 2.3 3 0 1.55-.45 2.5-2.05 4.55-1.1 1.4-2.2 2.55-2.4 2.55-.95 0-7.96 6.56-8.56 7.96-1.45 3.55.65 8.7 4.3 10.5 2.2 1.16 7.21 1.3 10.06.36 3.4-1.15 8.91-5.5 11.76-9.3 4.8-6.41 6-7.81 7-8.47 2.16-1.35 8.06-.75 17.62 1.7 10.25 2.66 14.16 4.4 20.11 9.01 7.16 5.6 9.56 9.4 10.06 15.91.8 11.01-6.91 19.27-19.77 21.22-9.6 1.45-13.11 4.35-13.11 10.86 0 2.3.25 3.05 1.66 4.9 2.3 3 4.7 4.05 9.85 4.3 6.91.35 14.86-1.5 19.77-4.55 13.01-8.16 20.31-18.56 21.76-31.12.65-5.6 1.3-6.9 4.3-8.6 4.36-2.41 8.26.4 12.31 8.85 2.16 4.55 2.56 5.9 3.01 10.1.65 5.96-.05 12.81-1.66 16.27-.6 1.35-1.7 3.95-2.4 5.9-3.2 8.56-5.2 11.56-12.51 18.82-5.2 5.2-7.7 7.3-10.55 8.85-7.51 4.15-16.16 6.16-26.62 6.16-9.31.05-16.01-1.8-27.17-7.46-5.76-2.9-6.86-3.3-10.01-3.5-2.95-.2-3.9-.05-5.65.85-4.86 2.45-6.01 9-2.6 14.16 2.8 4.25 11.1 9.15 19.31 11.4 2.1.56 4.4 1.36 5.15 1.7 4.31 2.26 21.37 3.51 31.58 2.31 10.25-1.15 11.2-1.2 11.95-.35.95 1.2.3 2.55-2.2 4.45-1.65 1.3-3.05 1.9-5.75 2.36-7.61 1.4-18.01 10.45-18.01 15.7 0 2.3 1.35 4.8 4.25 7.96 1.5 1.6 2.75 3.25 2.8 3.55 0 .36 0 4-.05 8.21-.05 6.66.1 8.26 1.3 13.26 1.5 6.4 7.71 21.82 10.51 26.22 2.25 3.55 8.2 9.8 13.46 14.2 6.45 5.41 7.75 6.11 11.66 6.36 3 .2 3.55.1 5.4-1.15 1.15-.7 2.4-1.9 2.85-2.65 1.15-2 1.5-5.6.85-8.86-.65-3.2-.85-3.4-10.55-12.45-4.51-4.16-6.86-7.61-10.31-15.01-3.6-7.81-4.81-12.97-4.56-19.97.15-5.2.3-5.8 2.01-9.46 1.05-2.15 3.85-6.5 6.25-9.75 6.05-8.16 12.81-14.66 20.21-19.47l7.86-5.1c2.6-1.7 9.66-4.65 17.61-7.4 6.21-2.16 7.16-2.36 11.76-2.36 3.25-.05 5.61.2 6.76.65 3.7 1.5 8.4 5.06 12 9a38.94 38.94 0 007.76 6.61 33.17 33.17 0 004.35 2.45c.2 0 1.85 1 3.66 2.2 4.7 3.16 9.95 5.61 14.56 6.86 3.5 1 5.7 1.15 19.01 1.4 17.56.35 16.96.15 21.11 6.3 5.36 7.86 8.41 10.42 15.37 12.77 2.2.7 5.35 2 7 2.8 2.45 1.25 3.05 1.75 3.15 2.9.35 2.85-2 3.5-7.3 2-5.76-1.55-8.66-3.3-12.96-7.5-4.66-4.6-9.61-5.4-13.61-2.2-2.65 2.15-3.3 3.6-3.3 7.45.05 4.25 1.1 6.3 5.55 10.76 2.75 2.75 4.4 3.85 8.46 5.8 2.75 1.3 6.5 2.9 8.35 3.5 3.95 1.26 5.36 2.7 6.96 7.01.8 2.2 1.65 3.45 3.15 4.65 2.95 2.46 5.25 3 11.56 3 4.9-.04 5.9.1 9.5 1.46 3.71 1.4 4.36 1.5 8.76 1.25 9.06-.5 22.72-6 34.57-13.91 7.11-4.76 9.26-4.2 11.61 2.95 1.9 5.7 2.3 9 1.75 14.26-.65 6.2-.15 26.17.75 30.62 2.61 12.71 5.46 22.62 7.56 26.67 1.15 2.2 4.85 5.46 7.56 6.66 5.4 2.4 11.65.95 13.86-3.2 1.05-1.9 1.15-2.8 1.2-9.86.05-7.06.15-8.1 1.35-11.46a50.3 50.3 0 019.8-16.26 90 90 0 016.51-5.76c2.6-2.1 5.35-4.3 6.1-4.95 1.7-1.4 15.76-10.7 19.77-13.11 3.35-2 9.1-6.2 10.2-7.46.4-.5 1.96-1.9 3.41-3.2 2.05-1.85 3-2.35 4.4-2.35 1.5 0 1.85.25 2.45 1.65.35.9 1.05 4.25 1.5 7.4.4 3.16 1.1 6.91 1.55 8.36.4 1.45 1.2 5.16 1.75 8.26.56 3.1 1.41 6.95 1.91 8.6 1.85 5.9 2.7 15.22 2.4 25.02a132 132 0 01-.85 12.26c-.55 3.55-2.95 13.66-4.91 20.77-.65 2.45-1.6 6.3-2.1 8.5s-1.6 5.7-2.45 7.86c-.85 2.1-1.55 4-1.55 4.25s-.75 1.75-1.7 3.3c-.95 1.55-2.1 4-2.6 5.46a20.33 20.33 0 01-1.5 3.65c-.36.55-1.11 2.25-1.66 3.75-1.65 4.36-8.9 15.31-15.16 22.97-4.25 5.15-5.45 7.5-6.9 13.56-.9 3.7-1.25 7-1.55 15.01-.75 20.12-2.95 36.33-6.66 49.09-4.2 14.26-5.95 19.81-7.75 24.51-2.2 5.7-4.06 12.31-4.06 14.41 0 .7-.75 3.76-1.7 6.8-.9 3.01-2.15 8.76-2.75 12.77-.55 4-1.5 10.16-2.05 13.76a995.1 995.1 0 00-2 13.76c-.55 4-1.3 9.05-1.7 11.26-.4 2.2-.85 5.1-1.05 6.5a60.07 60.07 0 01-1.76 7.5 99.39 99.39 0 00-2.75 12.01c-.3 2.2-4.4 15.32-7.05 22.52-1.4 3.9-3.1 7.46-7.61 16.01-.6 1.1-3.05 6.06-5.45 11.01-2.35 4.95-4.6 9.36-4.95 9.76-.3.4-1.86 3.45-3.36 6.75-1.5 3.31-3.9 8.16-5.35 10.76-1.5 2.6-4.25 7.81-6.26 11.51-1.95 3.7-4.9 9.01-6.55 11.76a276.7 276.7 0 00-4.95 8.5 134.27 134.27 0 01-4.56 7.51c-1.45 2.2-4.1 6.55-5.9 9.61-1.8 3.1-4.2 6.9-5.4 8.45-6.26 8.16-8.36 13.16-7.51 17.77.8 4.3 3.5 6.8 7.51 7 3.35.2 5.7-1.25 9.65-5.95 3.7-4.46 13.21-18.57 17.31-25.72 1.31-2.3 3.96-6.66 5.96-9.66 1.95-3.05 4.65-7.56 5.95-10.01a92.4 92.4 0 013.86-6.6c.75-1.15 1.4-2.3 1.4-2.55s.5-1.05 1.05-1.81c.6-.75 2.55-4.2 4.3-7.7 1.8-3.5 3.65-6.91 4.15-7.61.5-.7 3.01-5.7 5.66-11.1 2.65-5.41 5.7-11.11 6.8-12.61 1.75-2.35 2.4-2.86 4.66-3.51 4.3-1.2 11.4-2.05 12.35-1.45 1.51.95 1.26 4.36-.7 9.86-4.15 11.31-10.75 20.77-23.61 33.77-8.01 8.06-9.26 9.66-11.41 14.32-2.45 5.45-3.1 7.85-3.75 14.61-.3 3.25-1 7.45-1.5 9.4-.51 1.9-1.31 5.41-1.71 7.76-1.55 8.15-4.2 15.31-9.9 26.77-3.01 6.05-6.46 12.26-7.66 13.76-1.2 1.5-3.7 4.8-5.5 7.35-5.61 7.71-13.36 14.36-19.12 16.46-6.15 2.16-10.8-.75-12.45-7.65-.96-4.1-.86-6.31.55-11.71 1.35-5.2 1.55-7.96.7-10.51-1.2-3.45-5.31-6.45-8.96-6.45-4.2 0-8.96 4.15-11.21 9.86-2.1 5.15-4.45 9.85-6.45 12.85-1.8 2.71-9.06 11.51-17.92 21.87-3.45 4-5.55 6.61-13.96 17.21-3.7 4.71-11.15 13.86-15.41 19.02-1.6 1.9-4.45 5.5-6.35 8-1.85 2.45-4 5.21-4.7 6.06-1.25 1.5-5.66 7.05-9.16 11.56a566.14 566.14 0 01-15.16 18.71c-11.06 13.21-14.06 16.81-17.16 20.71a331.05 331.05 0 01-17.42 19.32c-4.05 3.9-5.15 4.05-10.95 1.15-5.26-2.55-9.96-3.5-15.56-3-6.76.6-13.06 2.05-15.32 3.5-.6.4-2.15.95-3.4 1.25-3 .65-3.8.1-6.75-4.8-8.56-14.06-17.56-16.72-40.53-11.96-9.86 2.05-16.76 2.7-19.31 1.85-2.06-.65-3.06-2.35-3.96-6.81-.7-3.5-6.35-15.31-9-18.81-6.26-8.36-15.71-18.11-22.92-23.77-4.15-3.2-9.61-7.15-11.36-8.15-1.1-.7-2.45-1.6-3-2.1-2.55-2.21-20.97-11.76-27.52-14.21-8.86-3.31-25.87-9.06-28.92-9.76-1.35-.3-5.25-.75-8.76-1.05-3.45-.25-9.25-.95-12.81-1.45-14.66-2.2-23.36-.5-29.57 5.7-3.7 3.7-4.4 5.55-4.65 11.86-.35 8.61 1 12.21 7.81 20.61 3.3 4.11 6.25 5.66 15.11 8.06 3.45.9 8.75 2.35 11.75 3.2 3.06.8 8.71 2.2 12.66 3.1a125.11 125.11 0 0128.62 9.76c16.82 7.96 21.27 10.91 43.58 28.62 4.96 3.96 14.06 9.41 17.77 10.66 1.55.55 3.55 1.45 4.5 2.05 1.9 1.15 6.51 2.05 15.86 3 5.21.5 7.86.5 13.76 0 11.96-1 15.56-1.55 19.27-2.8 7.8-2.75 12.4-.6 14.86 6.91 1.9 5.85 3.25 8.1 6.15 10.35 3.05 2.26 7.56 4.01 10.46 4.01 3.15 0 8.85-1.5 13.41-3.51 5.1-2.3 10-3.7 10.55-3.15.25.25.55 1.15.76 2 .25 1.35-.05 1.96-3.16 5.46-1.9 2.2-4.85 5.75-6.55 7.95a189.64 189.64 0 01-6.46 7.76c-1.8 2.05-5.85 6.7-9 10.36-3.21 3.65-9.16 9.7-13.31 13.51l-8.36 7.65c-5.55 5.36-16.21 14.11-20.96 17.26a369.02 369.02 0 00-15.66 10.86 122.1 122.1 0 01-8.51 5.71l-8.91 5.45a92.26 92.26 0 01-10 5.25c-6.31 2.81-13.36 6.31-14.51 7.26-.7.6-11.71 4.85-16.27 6.25-1.05.35-4.2 1.66-7 2.86-2.75 1.25-7.01 3-9.51 3.9-2.45.9-9 3.5-14.51 5.7-10.05 4.11-19.46 7.46-25.01 8.86-2.91.7-7.86 2.5-14.01 5.05-3.16 1.3-7.81 3.11-14.62 5.61-2.3.85-4.7 1.85-5.35 2.3-1.8 1.2-8.96 4.15-14.56 6-2.75.95-7.6 2.6-10.76 3.76-13.71 4.9-26.02 8.05-35.97 9.25a73.4 73.4 0 00-10.46 2l-4.65 1.35-9.36-.6c-7.5-.45-11.76-1.05-21.61-3a2967.2 2967.2 0 00-21.37-4.2c-5-1-10.26-2.25-11.71-2.8-1.45-.6-4.55-1.5-6.9-2.05-7.2-1.66-21.82-7.21-25.12-9.51-.7-.5-2.5-1.4-4-1.95a51.5 51.5 0 01-4.2-1.95c-.8-.5-2.3-1.2-3.26-1.56-2.95-1.15-23.01-12-27.27-14.81-2.2-1.4-6.3-3.95-9.1-5.6a267.53 267.53 0 01-18.42-12.31c-3.95-3-19.66-18.31-23.51-22.92-1.9-2.25-4.76-5.6-6.3-7.4-3.11-3.6-4.66-5.85-8.22-11.76-2.95-5-21.31-32.42-27.06-40.53-1-1.4-3.7-5.65-6.06-9.51a655 655 0 00-6.4-10.5c-2.45-3.86-11.16-21.02-12.66-25.02a371 371 0 01-4.1-11.76 182.1 182.1 0 00-4.06-11.06c-1.2-2.4-4.8-15.41-5.7-20.56-.75-4.26-2.6-12.71-5.3-23.92a275.05 275.05 0 01-4.76-28.42c-.4-3.7-1.05-9.11-1.45-12.01-.4-2.95-.95-8.3-1.25-11.86-.3-3.6-1.1-10.35-1.8-15.11-.75-5.5-1.2-10.86-1.2-14.96 0-6.65-.95-20.16-2.25-31.52-.4-3.6-.75-9.86-.75-13.91 0-7.16.04-7.41 1.25-8.56 1.5-1.55 1.95-1.55 7.8.05 3.8 1.05 6.26 1.35 12.71 1.55 9.16.3 11.46-.1 18.01-3.1 16.31-7.55 20.42-8.21 24.52-3.95 2.45 2.5 2.6 3.15 3.25 11.71.25 3.45.8 7.25 1.2 8.5 4.2 12.91 8.66 19.57 15.37 22.92 2.7 1.4 4 1.7 7.75 1.95 10.3.65 15.81-1.65 26.17-10.86 6.6-5.9 9.3-7.5 12.4-7.5 1.8 0 4.96 1.8 6.16 3.5 1.35 1.9 3.25 7.51 4.5 13.16 2.06 9.31 7.41 17.26 16.97 25.22 5.6 4.65 7.35 5.75 17 10.71 5.96 3.1 14.42 7 18.82 8.7 4.4 1.75 10.51 4.15 13.51 5.41 3.05 1.25 9.21 3.45 13.76 4.85 4.56 1.45 11.46 3.8 15.36 5.25 3.96 1.5 9.66 3.36 12.76 4.21 3.1.8 8.16 2.4 11.16 3.45 3.05 1.05 8.46 3 12.01 4.25 4 1.4 9.65 2.9 14.76 3.85 7.6 1.51 8.8 1.61 16.01 1.36 6.75-.15 8.21-.36 11.46-1.56 6.45-2.25 12.56-7.35 15.11-12.56 1.05-2.2 1.2-3.2 1.2-8 0-4.9-.15-5.81-1.3-8.26-1.95-4.15-6.96-10.55-9.86-12.66-5.55-3.95-17.91-9.6-30.12-13.66-2.05-.7-4-1.5-4.3-1.75-.55-.45-8.26-3.2-13.46-4.8-1.35-.4-4.96-1.5-8.01-2.45-3-.9-7.2-2.05-9.25-2.5-2.06-.45-4.36-1.11-5.06-1.51-.7-.35-3.55-1.2-6.25-1.9-2.75-.7-6.01-1.7-7.21-2.25a35.61 35.61 0 00-6.4-1.75c-2.3-.45-5.46-1.1-7.01-1.5-1.6-.4-5.45-1.2-8.6-1.75a80.76 80.76 0 01-10.01-2.5c-4.65-1.65-11.4-2.56-18.36-2.56-6.66.05-10.46.75-14.41 2.71-4.66 2.35-6.26 2.6-7.86 1.35-1.4-1.15-2.4-3.61-3.65-9.06a42.13 42.13 0 00-6.66-14.66c-3.3-4.7-6.6-7.36-11.95-9.46-3.3-1.3-4.76-1.6-9.61-1.8-6.4-.25-9.66.3-14.31 2.4-3.8 1.7-6.4 3.71-11.76 9.11-4.45 4.45-6.05 5.55-9 6.1-1.5.25-2.06.05-3.7-1.3-3.26-2.7-4.66-6.5-5.76-16.01-1.15-9.4-2-12.56-4.36-16.41a24.9 24.9 0 00-7.25-7.91c-3.9-2.95-8.06-4.2-14.71-4.5-7.36-.3-13.86 1.2-21.32 4.95-2.85 1.46-6.2 3.11-7.45 3.76-4.86 2.4-10.91 2.7-17.76.95-3.76-1-10.06-4.76-13.16-7.91l-2.36-2.4-.15-24.77c-.15-22.26-.05-25.62.9-33.62 1.2-10.71 3.5-24.87 4.96-30.42.55-2.2 1.35-6.36 1.75-9.26 1.4-9.86 3.85-20.06 7.36-30.62 1.95-5.86 4.3-13.56 5.25-17.11 1.6-6.1 2.8-9.61 7.8-23.52 1.05-3.05 2.66-7.56 3.46-10 .85-2.51 2.85-7.01 4.5-10.12 1.85-3.6 3.6-7.8 4.75-11.7 1-3.4 2.6-7.96 3.6-10.16 2.16-4.96 2.5-7.4 1.4-10.66-1.3-3.9-4.95-6.65-8.9-6.65-2.35 0-6.75 2.4-8.56 4.65-.85 1.1-2.4 2.6-3.45 3.35-1.7 1.25-2.1 1.35-3.95.95-5.9-1.35-10.9-7.5-15.31-18.86l-1.9-4.86.05-8.25c0-9.86.45-12.91 3.95-27.27 2.75-11.16 4.6-17.01 9.26-29.27 1.4-3.7 3-8.3 3.55-10.26 1.4-4.85 4.3-12.56 5.7-15.26 1.35-2.55 3.45-7 7.5-16.01 1.56-3.45 3.26-6.96 3.76-7.76.55-.85 2.75-5.55 4.95-10.45 2.2-4.9 4.86-10.41 5.96-12.21 1.1-1.86 3.7-6.76 5.85-10.86 2.1-4.15 4.36-8.2 4.96-9 .65-.86 2.6-4.21 4.4-7.51 1.8-3.3 4.2-7.66 5.35-9.66 1.1-1.95 2.9-5.1 3.96-7 3-5.31 4.55-7.61 5.15-7.61 1.85 0 4 2.25 6.1 6.4 3.7 7.1 4.76 12.41 3.16 15.51-.4.75-1.8 2.3-3.2 3.46-2.5 2.15-6.06 6.7-8.06 10.4-.6 1.1-1.95 3.36-3.05 5-1.1 1.66-2.4 3.66-2.9 4.46-.46.8-1.8 2.8-2.9 4.5-1.16 1.7-3.16 5.1-4.46 7.56a85.8 85.8 0 01-3 5.25c-.85 1.06-4.76 10.06-7.76 18.02-1.45 3.7-3.1 7.75-3.75 9-3.25 6.5-5.7 17.02-6.1 26.02-.26 6.3-.2 6.96.85 9.4a7.93 7.93 0 007.6 5.11c6.4 0 8.8-3.3 10.46-14.4 1.1-7.26 4.15-17.87 6.5-22.62.7-1.5 1.6-3.66 1.95-4.7.35-1.1 1.05-2.7 1.56-3.56.5-.85 1.35-2.8 1.9-4.3 2.4-6.8 10.4-20.62 17.56-30.23 3.45-4.7 6.4-9.7 7.3-12.45 1.5-4.7 2.96-6.66 6.5-8.66 2.71-1.55 3.71-2.55 5.61-5.4 2.5-3.8 8.5-15.47 10.06-19.52.5-1.4 2.2-4.85 3.8-7.75a152 152 0 005.76-12.51c1.6-4 4.1-9.76 5.5-12.76 2.4-5.06 6.35-14.81 7.26-17.76.34-1.16 2.55-5.8 5.6-11.76.7-1.4 1.7-3.66 2.2-5 1.4-4.01 5.35-12.67 6.36-14.17.54-.75 2.7-4.75 4.8-8.95 2.1-4.16 5.45-10.06 7.45-13.11 2-3 4.7-7.26 6-9.41 8.61-14.01 19.77-28.67 29.33-38.43 5.85-5.95 15.81-15.16 19.36-17.86.8-.6 2.9-2.35 4.71-3.9 3.6-3.16 4.55-3.7 6.8-4.16 2.2-.4 2.8.4 5.65 7.8 2.71 7.01 8.36 17.37 13.11 24.03 1.71 2.4 6.21 7.5 9.91 11.3 9.26 9.41 16.51 14.71 27.02 19.67 17.46 8.25 22.82 9 27.42 3.75 1.8-2.05 2.4-5.05 1.65-8-.45-1.6-1.4-2.9-4.05-5.46-3.4-3.2-3.5-3.4-3.15-5.15.4-2.25 1.65-2.85 7.2-3.7 7.31-1.1 24.52-4.6 28.37-5.76 2.15-.65 5.15-1.45 6.66-1.8 1.5-.35 3.8-1.15 5.1-1.8 1.3-.65 3.7-1.7 5.25-2.25 6.71-2.5 14.31-6.56 19.52-10.51 10.15-7.66 13.56-11.7 19.16-22.77 4.75-9.4 5.5-11.6 5.05-14.76-.75-4.95-4.1-7.95-8.85-7.95-4.36 0-6.36 2-12.16 12.35-6.21 11.06-9.56 14.72-17.81 19.52-9.01 5.2-17.67 8.66-21.82 8.66h-2.5l.35-1.9c.25-1.5 1.4-2.96 6.2-7.86 3.26-3.3 6.51-7 7.31-8.26 3.6-5.85 6.8-11.9 7.3-13.86.7-2.8.25-8.2-.8-9.7-1.4-2.06-4.7-3.86-7.6-4.26-1.5-.15-3.25-.7-3.85-1.2l-1.06-.9 1.96-2.15c1.8-2.1 13.01-9.26 19.01-12.3 4.25-2.11 25.87-9.62 31.27-10.82 1.8-.4 5.51-1.1 8.26-1.55 10.4-1.65 13.61-1.7 15.46-.25zm-82.01 36.48c.45 1.5-.15 3.8-1.45 5.4-.65.75-1.45 2-1.85 2.8-.85 1.75-1.45 2.06-2.6 1.2-.8-.6-.8-.85-.1-3.25.45-1.45 1.2-2.85 1.7-3.1.5-.3 1.45-1.3 2.1-2.25 1.4-2.05 1.75-2.2 2.2-.8zm277 44.73a69.2 69.2 0 006.7 1.55c4.1.6 7.76 2.15 8.31 3.6.7 1.9.55 3.4-.5 4.76-.55.65-2.16 3.5-3.56 6.3-3.55 7-3.35 6.9-14.01 9-2.9.6-8.05 1.86-11.5 2.86-6.66 1.9-8.31 1.9-8.76.1-.3-1.15 1.2-4.45 3.2-7.3 1.7-2.36 4.86-9.36 6.01-13.41.6-2 1.8-4.56 2.7-5.76 2.45-3.2 4.9-3.6 11.41-1.7zm468.23 182.83c1.1 1.05 1.45 2 1.7 4.46.4 3.7 1.85 8.1 3.3 9.95 2.2 2.8 2.45 6.76.7 10.46-.55 1.2-1.3 1.8-2.7 2.2-1.7.5-2.2.45-4.3-.65-3.96-2.05-9.41-6.95-10.66-9.56-2.2-4.55-.45-9.3 5.75-15.5 1.55-1.56 3.21-2.76 3.81-2.76.55 0 1.65.6 2.4 1.4zM803.12 889.16c1.65 1.6 1.5 3.45-.8 9.86-1.25 3.4-2.85 8.15-3.6 10.65-.75 2.45-2.1 6.3-3 8.5-2.45 6.11-5.56 15.57-6.5 20.02-.5 2.2-1.26 5.1-1.76 6.5-.5 1.36-1.4 4.21-2 6.26a39.8 39.8 0 01-2 5.5c-.5.96-1.25 3.46-1.7 5.51-.5 2.05-1.25 5.1-1.8 6.8a76.3 76.3 0 00-1.75 8.76c-.45 3.15-1.25 8.06-1.8 10.9-.5 2.86-1.56 8.97-2.26 13.67-.65 4.65-1.45 9.06-1.75 9.81-1.6 4.15-2.95 20.21-2.95 35.92 0 6.81-.3 8.56-1.7 9.31-.55.3-3.1.6-5.6.6-4.16.05-4.7.15-6.36 1.45-3 2.25-3.6 3.6-3.6 7.66 0 3.5.15 3.9 3.45 10.45 1.9 3.81 4.15 7.81 5 8.96 3.56 4.6 8.76 13.86 9.01 15.96.15 1.15.4 8.31.5 15.86.3 13.46 1.25 26.02 2.35 29.52.25.96.7 7.06.95 13.51.65 16.77 1.45 26.62 4 50.04.5 4.8 1.1 10.46 1.26 12.51.15 2.05.75 5.85 1.25 8.41.55 2.55 1.3 7.4 1.75 10.8.4 3.46 1.2 7.66 1.75 9.41.55 1.7 1.8 6.96 2.75 11.66 1 4.65 2.3 11.21 3 14.51.7 3.3 2.3 9.26 3.66 13.26 7.15 21.26 10.8 31.37 13.36 36.78 1.55 3.3 3.5 7.55 4.25 9.5 2.1 5.21 6.2 12.36 13.56 23.67 2.65 4.05 6.1 9.61 7.7 12.36 1.6 2.75 4.76 7.45 7 10.51 2.26 3 5.26 7.3 6.76 9.5a79.8 79.8 0 003.6 5.06c.5.55 2.3 3.35 4.06 6.25 1.7 2.85 4.4 7.11 6 9.46 1.6 2.35 5 7.5 7.6 11.51 8.16 12.61 11.32 16.36 21.82 26.16 4 3.76 7.91 7.66 8.66 8.76.9 1.35 1.55 3.25 2.05 6.16.4 2.35 1.65 6.45 2.75 9.15s2 5.41 2 6.06c0 .6-.44 2.55-.95 4.3-1.5 5-1.5 5.75-.7 13.46.6 5.8.65 8.51.2 13.51-.75 8.91.2 12.06 4.46 14.31 2.8 1.5 5.15 1.5 8 .05 3-1.5 4.86-4.4 5.8-8.96.86-4.35 1.6-6.4 2.4-6.45 3.61-.35 4.91.5 12.92 8.1 1.5 1.51 6.2 5.71 10.36 9.41 6.55 5.81 7.6 7.01 8.25 9.01.6 1.85.8 7.2 1.05 27.32.55 40.78.5 49.78-.1 65.04-.7 18.22-1.2 20.02-5.45 20.37-.8.05-2-.2-2.65-.55-1.36-.75-6.9-2.7-15.06-5.31a109.2 109.2 0 01-15.27-5.95 40.17 40.17 0 00-4.75-2.05c-.7-.2-2.7-1-4.5-1.75-1.8-.8-4.8-2.05-6.76-2.8-1.9-.7-7.9-3.46-13.26-6.06-5.35-2.65-12.05-5.9-14.86-7.25-6.6-3.16-8.3-5.21-10.15-12.21a38.2 38.2 0 00-2.2-6.11c-.66-1.3-1.56-3.6-2.06-5.1-.5-1.5-1.25-3.25-1.6-3.85-.4-.6-1.35-3.11-2.15-5.51-.75-2.4-2.35-6.9-3.5-9.9-1.15-3.06-2.65-6.96-3.3-8.76-3.6-9.46-5.46-13.11-7.41-14.81-4.35-3.75-8.6-3.4-15.81 1.35a92.54 92.54 0 01-9.26 5.5c-1.65.9-3.65 2.1-4.5 2.71-1.45 1.1-10.36 5.75-10.96 5.75-.2 0-4.4 2-9.45 4.45-5 2.45-11.36 5.26-14.12 6.21-2.75 1-8.95 3.25-13.75 5.1-4.8 1.85-9.76 3.65-11.01 4-2.86.85-14.36 3.51-18.27 4.26-1.65.3-4.8 1.05-7 1.6a151.1 151.1 0 01-25.77 3.75c-17.31.65-48.18-5.35-65.5-12.81-14.05-6.05-17.3-7.65-19.9-9.61-2.31-1.7-2.66-2.2-2.76-3.85-.15-2.95.15-5.6.9-9.36.85-3.9 2.95-22.31 3.45-30.02.2-2.75.65-6.7 1.1-8.75.95-4.86 2.15-22.62 2.15-32.53 0-4.25.36-12.71.75-18.76.86-12.61.96-28.42.2-33.52-.25-1.96-.7-18.62-.9-37.03-.45-32.87-.85-41.78-2.3-51.29-.4-2.6-1-11.41-1.25-19.51-.3-8.11-.8-19.17-1.05-24.52-.25-5.35-.65-20.21-.85-33.02-.2-12.81-.5-23.52-.7-23.77-.65-1-1.9-22.12-2-34.03-.15-13.31-.3-12.71 3.45-18.31 1.05-1.55 2.6-3.95 3.5-5.25.9-1.35 2.05-3.16 2.65-3.96.56-.85 2.1-3.2 3.36-5.25 1.3-2.05 3.35-5.35 4.55-7.25 3.8-5.91 4.35-6.91 6.6-10.76 1.2-2.05 3.2-5.31 4.46-7.21 1.25-1.85 3.7-5.8 5.4-8.75a376.5 376.5 0 016.3-10.56c1.76-2.9 4.51-7.76 6.11-10.76 1.6-3.05 4-7.1 5.25-9.01 1.3-1.95 2.86-4.5 3.5-5.75.6-1.25 3.11-5.5 5.51-9.51 2.4-4 5.56-9.5 7-12.26 1.5-2.75 3.36-6 4.16-7.2.85-1.2 3.4-5.96 5.75-10.51 2.3-4.55 4.66-9.06 5.2-9.96 1.2-1.95 8.81-16.76 16.92-32.87 9.9-19.71 15.71-31.02 17.21-33.52 1.7-2.86 14.81-28.98 14.81-29.52 0-.7 4.5-9.21 6.6-12.51 1.26-1.96 3.66-6.06 5.36-9.16 1.65-3.1 4.15-7.26 5.5-9.26 1.36-1.95 3.16-4.95 4.1-6.6 3.16-5.76 6.06-10.41 8.46-13.46a74 74 0 003.76-5.3c2.05-3.26 13.65-16.87 17.06-19.97 1.6-1.45 3.35-2.85 3.9-3.05 1.65-.7 3.65-.55 4.45.25zm-585.06 473.09c6.75.3 13.4.8 14.86 1.05 2.3.45 2.75.75 4.15 2.85 3 4.56 4.26 11.26 2.46 13.41-1 1.2-3.9.8-8.66-1.25-2.5-1.05-7.6-2.9-11.3-4.05-3.71-1.15-9.17-2.85-12.12-3.8-5.35-1.71-14.9-6.06-14.9-6.81 0-.25.5-.9 1.04-1.45 1-1 1.4-1.05 6.66-.8 3.05.2 11.06.55 17.81.85zm1008.16 121.39c.5 1.85-.25 4.15-4.25 12.71-2.05 4.35-5.65 15.71-7 22.01-1.11 5.21-3.31 19.27-6.16 39.53-2.85 20.22-6.75 35.98-10.96 44.28-.95 1.9-3.15 6.91-4.9 11.11-1.7 4.2-4.2 9.51-5.5 11.76-1.31 2.3-3.21 5.7-4.21 7.66a76.16 76.16 0 01-7.15 11c-.6.8-4.91 6.51-9.56 12.76a616.84 616.84 0 01-10.56 13.76 261.83 261.83 0 00-10.15 12.76 69.98 69.98 0 01-3.56 4.5l-2 2.21-1.75-.8c-1.5-.75-1.8-1.21-2.25-3.51-1.05-5.25-1.55-15.01-1.8-35.67-.15-12.26-.5-21.82-.8-22.97-.7-2.6-3.05-5.45-6.16-7.4-1.4-.86-5.35-4.36-8.8-7.71-5.41-5.25-10.96-10.01-28.77-24.62-7.31-6-18.07-13.86-22.52-16.51-1.9-1.1-4.4-2.55-5.45-3.2-1.1-.65-3.41-2.1-5.11-3.25a59.69 59.69 0 00-7-3.91c-5.01-2.35-14.11-6.25-14.51-6.25-.2 0-2.15-.8-4.36-1.8-8.45-3.86-22.21-6.71-32.12-6.71-5.2 0-6-.1-7.4-1.1-1.85-1.25-9.91-8.5-16.87-15.11a434.59 434.59 0 00-16.5-15.06c-3.8-3.1-20.47-19.31-23.07-22.42-1.85-2.25-2.45-3.35-2.45-4.6 0-2.05 1.2-2.65 2.7-1.35.6.5 5.1 2.85 10.05 5.3 10.61 5.16 12.41 6.06 19.02 9.51 2.75 1.4 7.25 3.45 10 4.55a214.3 214.3 0 0110.01 4.26c5.9 2.75 15.16 5.5 23.52 7 3.3.55 7.3 1.4 8.9 1.8 1.61.4 5.31 1.2 8.31 1.7 2.95.55 6.36 1.35 7.56 1.75 3.6 1.31 18.26 3.71 26.26 4.41 19.02 1.55 45.34-.55 55.74-4.46a74.4 74.4 0 017.26-2.25c6.55-1.65 23.02-7.3 29.27-10 5-2.21 9.81-4.11 22.57-9.01 1.5-.6 4.1-1.8 5.75-2.7 1.65-.9 6.15-2.55 10.01-3.71 11.71-3.5 21.51-6.95 23.51-8.25 1.1-.7 10.66-3.7 12.11-3.75.35-.05.85.75 1.1 1.75zM981 1561.39c1.4 1.1 2.7 2.26 2.95 2.66.35.55 13.06 12.4 21.37 19.91 4.8 4.35 8.25 5.25 12.21 3.25 3.55-1.8 4.25-3.8 4-11.36-.15-5.5-.1-5.7.9-5.85 1.55-.2 9.56 2.65 12.71 4.6 1.5.9 5.25 2.96 8.25 4.46a74.44 74.44 0 018.01 4.6c1.4.95 5.65 3.85 9.51 6.45a251.38 251.38 0 0123.76 18.32c2.05 1.8 5.11 4.35 6.76 5.7 1.65 1.3 6.9 6.01 11.61 10.46 7.2 6.7 8.75 8.46 9.4 10.31.55 1.7.75 4.55.75 11.96 0 5.3.2 12.3.5 15.51 2.1 25.37 2.1 25.16 1.9 56.14-.2 27.32-.3 31.02-1.25 37.77-.6 4.11-1.2 9.66-1.4 12.26-.2 2.61-.65 6.41-1 8.41a167.86 167.86 0 00-2.25 17.11 86.5 86.5 0 01-1.7 10.76 68.8 68.8 0 00-1.5 9.76c-.2 2.6-.8 7.65-1.3 11.25-1.35 8.86-1.85 15.97-1.45 20.62.2 2.15.4 6.2.4 9.01.05 4.5-.1 5.3-.95 6.15-1.96 1.95-3.26 1.8-7.11-.75-7.85-5.2-13.51-10.16-17.16-15.01-5.31-7.06-7.46-15.51-8.76-34.28-.25-4-.75-10.45-1.05-14.36-.7-8.65-.35-27.12.55-29.77l.65-1.85 1.9 1.9c1.05 1.05 3.06 4.16 4.46 6.86 2 4.05 2.8 6.45 4.25 12.96 1 4.4 2.25 10.9 2.8 14.46 1.3 8.5 2.75 11.41 6.71 13.26 3.1 1.45 5.15 1.35 7.75-.4 3.45-2.36 4.51-4.51 4.51-9.56 0-5.95-.8-11.91-2.31-16.56-.7-2.2-1.6-5.96-2-8.36-1.45-8.2-5.4-18.41-10.91-28.12-8.25-14.56-14.86-22.82-25.56-32.02-6.51-5.61-7.81-6.61-12.76-9.51-2.05-1.25-5.91-3.6-8.51-5.25-2.6-1.7-6.5-4.01-8.65-5.16-3.86-2.05-17.32-10.85-21.12-13.81-3.95-3.05-11.06-9.45-13.5-12.15-3.46-3.91-16.57-15.57-18.72-16.67-4.05-2.05-5.16-4.55-4.55-10.1 1.4-12.46 1.75-21.12 1.75-44.94 0-18.06-.2-27.42-.7-32.72-.75-7.91-.65-8.56 1.5-9.66 1.65-.85 1.55-.9 4.35 1.35zm-44.18 107.53c3.85 1.35 8.15 2.9 9.5 3.55 2.46 1.05 13.91 3.76 21.12 4.96 2.2.4 4.15 1.05 5.15 1.8.85.65 5.46 4.85 10.16 9.36 9.8 9.4 20.21 17.51 29.62 23.16 3.6 2.1 7.21 4.36 8.01 4.96.85.65 4.2 2.55 7.5 4.3 7.11 3.75 13.51 7.85 15.21 9.66 1.2 1.35 1.2 1.35.3 3.35-.75 1.7-1.75 2.5-6.45 5.35-9.26 5.56-14.01 9.16-17.61 13.16a223.21 223.21 0 00-12.56 16.01c-.5.7-2.45 3.51-4.46 6.26a159.92 159.92 0 00-8.15 13.51c-3.35 6.25-5.05 8.8-6.2 9.65a7.62 7.62 0 01-2.26 1.11c-.35 0-1.3-.96-2.15-2.16-1.6-2.15-9.05-17.01-10.96-21.81a21.3 21.3 0 00-1.95-4c-1.3-1.91-4.6-8.46-7.75-15.32-1.5-3.3-3.66-7.7-4.8-9.75-1.9-3.31-7.01-14.11-7.01-14.76 0-.45-4.16-8.96-5.3-10.76-.56-.95-1.2-2.3-1.46-3-.7-2.51-4.55-11.51-9.25-21.77-.9-1.95-2.3-5.2-3.1-7.25-.86-2.06-2.1-5.36-2.9-7.26-.76-1.95-2.06-4.95-2.9-6.75-2.21-4.71-2.26-5.16-1.06-6.66 1.5-1.95 3.55-1.75 11.7 1.1zm110.43 89.82c1.05.25 1.45.75 1.85 2.2.25 1 .6 14.01.8 28.87.15 14.86.55 28.92.8 31.27.75 6.51 2.95 17.46 4.05 20.27.55 1.35 1.6 4.05 2.35 6 3.91 10.36 12.36 19.96 25.07 28.52a74.38 74.38 0 019.01 7.51c3.05 3 5.6 5 7.15 5.65 2.25 1 2.35 1.1 2.35 3.1 0 1.45-.5 2.9-1.7 4.91-3.5 5.95-5.85 9.6-9.05 14.31a82.76 82.76 0 00-5.86 10.2c-1.4 2.96-3.8 8.06-5.4 11.36-1.6 3.3-3.7 8.26-4.7 11.01-1.01 2.75-2.51 6.71-3.26 8.76-.8 2.05-1.8 5-2.25 6.55-.8 2.9-4.35 8.21-5.4 8.21-.85 0-4.01-5.31-5.31-8.91-.6-1.55-1.65-4-2.35-5.35-1.45-2.86-2.95-6.81-5.7-14.76a363.4 363.4 0 00-3.7-10.26c-1.01-2.6-3.96-10.51-6.56-17.51a781.59 781.59 0 00-7.7-20.02c-1.61-4-3.16-7.8-3.36-8.5a153.88 153.88 0 00-5.45-12.76 35.12 35.12 0 01-1.8-4.01c-1.1-2.7-3.15-6.9-9.56-19.26-1.2-2.35-2.95-6.06-3.9-8.26-.9-2.2-3-6.85-4.6-10.3-3.2-6.86-3.5-8.66-2.06-11.46.5-.95 2.91-5.51 5.31-10.11 2.4-4.6 5.1-9.51 5.95-10.86.9-1.35 3.4-5.25 5.56-8.65 2.2-3.41 4.6-6.86 5.3-7.66.75-.85 3.1-3.75 5.2-6.55a44.51 44.51 0 018.21-8.56c4.4-3.55 7.9-5.65 8.86-5.4.25.1 1.1.3 1.85.45zm116.08 85.71c.8 2.4.8 15.06-.05 23.16-1.35 12.76-1.65 21.72-2.05 54.54-.3 31.73-.65 41.78-2.05 61.05-.7 9.31-1.76 17.91-2.46 19.71-.3.8-.95 2.05-1.5 2.8-1.9 2.66-5.6 12.11-9.1 23.02-.85 2.6-1.75 5.06-2.01 5.41-.65.75-4 10.2-5.7 15.86-1.85 6.25-5.05 15.46-6.1 17.61-.5 1.05-2 5.25-3.36 9.41-3.1 9.75-3.85 11.7-7.4 19.51a300.06 300.06 0 00-6.16 14.76c-5.25 13.71-7 18.21-7.55 19.27-.55 1-3.95 3.1-4.35 2.7-.1-.1-.9-2.45-1.71-5.21-.85-2.75-2.1-6.9-2.85-9.25-1.05-3.41-1.3-4.96-1.1-7.81.2-3.35.45-4.05 4-10.56 2.11-3.85 5.21-9.15 6.81-11.71 4.4-6.85 5.85-9.6 11.26-20.96 5.9-12.41 5.45-11.46 7.25-15.76 3.21-7.71 5.06-11.91 5.71-12.96 1-1.5 5.3-13.16 8.8-23.82a50.1 50.1 0 012.3-6c1.01-1.9 2.91-8.61 5.26-18.77.85-3.6 2.1-8.3 2.85-10.5a26.5 26.5 0 001.35-8.06c.05-3.7-.1-4.2-1.4-6.1-2-2.96-5.05-4.31-8.71-3.96-1.55.15-3.35.7-4.05 1.25-4.1 2.96-7.25 11.56-12.36 33.38-1.2 5.25-3.3 11.41-6.45 19.01-1.05 2.45-2.6 6.66-3.5 9.26-1.96 5.8-4.31 11.41-7.91 19.06-1.5 3.2-3.1 7.01-3.6 8.51-.95 2.95-6.96 15.36-10.51 21.71-1.85 3.36-2.5 4.06-4.05 4.61-1 .35-2 .5-2.25.4-.45-.3-4.11-11.71-4.91-15.26-.25-1.25-.75-4.51-1.05-7.26-.7-6.8-3.35-20.21-4.8-24.67-.65-2-1.55-5.6-1.95-8a968.1 968.1 0 00-2.26-11.61c-2.5-12.66-2.6-11.36 1.21-15.41 3.75-3.95 4.05-4.6 5.3-11.36 1-5.35 6.95-23.87 8.61-26.72.55-.95 2.1-4.55 3.45-8 2.95-7.46 7.25-17.02 8.15-18.07.35-.4 1.91-3.1 3.46-6a89.4 89.4 0 015.3-8.76l7.26-10.51c2.6-3.85 7.25-10.6 10.25-15.01 3.05-4.4 7.06-10.25 8.91-13.01 1.85-2.75 4.75-6.9 6.45-9.25 1.7-2.35 4.81-7.21 6.96-10.76 2.15-3.6 4.85-7.76 6-9.26a41.72 41.72 0 002.7-3.9c.55-1 3.76-3.5 4.66-3.55.15-.05.6.8 1 1.8z" fill="#DECEA7"/><path d="M1828.75 578.18c-4.25 1.15-6.76 2.5-12.06 6.5-8.66 6.61-13.31 11.87-15.96 18.12-1.15 2.75-1.3 3.8-1.25 8.4 0 4.61.25 5.86 1.65 10.01 3.05 8.81 5.85 13.31 12.11 19.47 2.9 2.85 4.15 3.7 6.65 4.55 5.61 1.85 8.36 2.15 12.16 1.25 8.06-1.85 12.41-4.4 18.41-10.86 6.96-7.5 8.71-11.8 9.11-22.86.35-9.2-.35-15.21-2.45-20.62-1.3-3.5-2.1-4.7-5.3-8.05-5.11-5.36-7.61-6.5-14.31-6.76-3.91-.1-5.91.05-8.76.85zm8.61 21.42c3.55 3.4 3.85 14.46.5 19.56-2.41 3.75-4.91 6.1-7.11 6.76-3.45 1-5.4-.2-8.51-5.46-4.8-7.95-4.65-9.95.86-15.8 4.8-5.11 8.05-7.11 10.85-6.71 1.2.2 2.55.85 3.41 1.65zM1009.07 672.25c-3.25.55-6.16 2.2-7.81 4.3-1.05 1.4-1.5 2.8-2 6.16-.55 3.8-.8 4.4-2 5.25a36.3 36.3 0 00-3.7 3.3c-2.65 2.7-3.35 5.2-2.4 8.66.65 2.5 2 4.05 4.7 5.5 1.9 1.06 2.5 1.1 11.01.86 16.46-.45 20.16-.3 24.01.9 1.96.6 5.41 2.2 7.76 3.6 2.35 1.4 7.06 3.9 10.51 5.55 3.45 1.7 10.86 5.3 16.51 8.06 5.65 2.75 14.11 6.9 18.76 9.15 4.71 2.3 12.56 6.16 17.52 8.56 10.1 4.9 14.86 7.1 20.01 9.2 1.95.76 5.4 2.26 7.75 3.26 2.36 1.05 6.16 2.65 8.51 3.65 2.35.95 4.7 2.05 5.25 2.4 1.41.9 7.81 2.6 11.16 2.96 1.75.2 4.76.05 7.61-.45 9.65-1.55 19.31-2.8 21.86-2.8 5.56 0 15.66 2 21.67 4.3 3.15 1.2 6.35 2.65 7.05 3.15 3.01 2.2 7.71 2.6 10.71.9 3.1-1.75 4.8-4.6 5.1-8.5.25-2.9.1-3.66-1.3-6.66-2.75-5.9-11.2-13.71-22.06-20.37-6.06-3.7-24.57-12.9-28.27-14a521.06 521.06 0 01-24.52-8.31c-3-1.15-6.95-2.65-8.76-3.3-4.5-1.6-9.8-4.06-12.5-5.76a83.5 83.5 0 00-7.01-3.5c-2.6-1.15-6.75-3-9.26-4.1-2.45-1.05-5.95-2.65-7.75-3.46-4.25-1.9-13.21-4.7-18.26-5.65-2.21-.4-7.11-1.55-10.91-2.5-3.8-1-7.31-1.8-7.81-1.8s-3.25-.7-6.1-1.5a68.08 68.08 0 00-12.71-2.26c-4.15-.4-8.61-.95-9.86-1.2-2.55-.6-24.41-3.55-27.92-3.8-1.25-.1-3.3 0-4.55.25zM1046.4 755.61c-11.46 1.65-21.72 3.5-24.57 4.45-1.95.66-5.36 1.66-7.66 2.26-4.5 1.15-10.6 3.9-12.46 5.65-3.95 3.7-4.5 9.56-1.25 12.96 3.81 4 6.41 3.95 20.02-.55 12.56-4.15 17.36-5.2 23.81-5.25l4.96-.05 1.45 1.65 1.45 1.6-1.55 2.9c-.8 1.55-2.25 4-3.15 5.45-2.46 3.9-4.06 10.96-3.66 16.32.6 7.55 1.86 12.4 5.11 20.16 5.05 11.86 10.86 17.21 23.01 21.07 4.86 1.55 5.96 1.7 9.01 1.45 6.85-.55 16.01-4.6 20.91-9.26 4.86-4.55 10.26-13.21 11.61-18.56.95-3.66 1.75-4.8 3.61-5.16 1.75-.35 5.5 3.2 10.55 9.9 2.05 2.76 4.36 5.66 5.06 6.51 2 2.2 6.6 9.51 9.75 15.51 2.21 4.16 5.41 8.31 7.71 9.96 1.9 1.35 2.6 1.55 5.25 1.55 5.16-.05 8.46-3.05 9.16-8.45.4-2.75-.4-5.5-3.35-11.51-4.91-9.86-12.71-20.82-25.57-35.73-5.05-5.8-21.17-20.16-28.42-25.22-5.3-3.7-17.66-10.75-21.52-12.2-1.25-.45-4.2-1.6-6.55-2.5-6.66-2.56-27.42-5.66-32.72-4.9zM1400.65 846.58c-3.41.85-4.36 1.4-5.91 3.65-2.7 3.95-1.5 8.15 3.35 11.66a82.1 82.1 0 016.26 5.15c2.4 2.15 5.7 4.36 9.06 6.1 6.1 3.2 9.2 5.46 16.76 12.16 3 2.7 6.9 5.9 8.65 7.11l6.56 4.8c1.85 1.4 4.4 3.2 5.6 4l4.71 2.96c1.4.9 4.75 3.05 7.5 4.85 2.75 1.75 6.45 4.06 8.26 5.1 4.7 2.8 11.5 7.31 13.26 8.81.85.7 3.2 2.4 5.25 3.75 2.05 1.3 5.35 3.6 7.25 5a74.62 74.62 0 006.76 4.41c1.8.95 4.7 2.6 6.5 3.55a100.45 100.45 0 0028.32 10.76c2.56.55 7.36 2.1 10.76 3.5 20.02 8.11 26.12 8.91 31.32 4.1 4.21-3.9 4.21-9.8-.05-15.35-1.9-2.46-9.4-9.26-17.26-15.66-2.6-2.1-6.1-5.06-7.75-6.61a383.8 383.8 0 00-6.81-5.85 141.3 141.3 0 01-6.25-5.4 87.48 87.48 0 00-4.26-3.66c-.95-.7-4.2-3.25-7.15-5.7a422.88 422.88 0 00-23.57-17.22c-2.5-1.7-6.7-4.6-9.3-6.4a140 140 0 00-33.78-17.26c-18.61-6.46-20.66-7.06-28.97-8.51-4.65-.85-8.6-1.6-8.76-1.75-.2-.1-4.2-.75-8.95-1.45-9.31-1.4-13.51-1.55-17.36-.6zM1388.79 917.43c-2.1.25-5.01.8-6.51 1.2-1.45.4-5.1 1-8.15 1.3-5.86.6-7.81 1-12.46 2.55-1.6.55-5.91 1.45-9.51 2-3.6.55-7.9 1.35-9.55 1.75-1.66.45-6.16 1.3-10.01 2-7.41 1.26-14.71 3.6-16.66 5.41-3.96 3.55-4.51 9.3-1.25 12.4 2.9 2.81 7.5 3.56 13.71 2.41 1.5-.3 5.85-1.1 9.7-1.75 10.71-1.85 21.62-4.15 25.82-5.5 5.75-1.8 11.91-2.56 13.76-1.7 1.4.7 1.45.85 1.3 3.7-.55 12.5-.4 14.8 1.25 19.96 3.85 11.76 11.61 20.42 20.77 23.07 6.3 1.8 15.96.7 23.11-2.65 5.36-2.56 8.81-5.1 12.61-9.41 4.81-5.4 5.76-7.2 9.91-18.81.5-1.3 1.3-2.9 1.75-3.5.85-1 1.05-1.06 2.55-.4 3.95 1.64 12.16 8.2 16.01 12.8 7.36 8.8 7.41 8.8 11.61 17.16 7.11 13.96 10.26 16.87 17.16 15.87 1.7-.3 2.61-.8 4.16-2.56 3.8-4.1 3.9-7.7.45-15.6-4.31-9.71-7.06-14.72-10.91-19.92-5.2-6.9-15.71-17.46-20.57-20.62-3.6-2.35-10.9-6.65-11.25-6.65-.15 0-1.15-.65-2.31-1.4-2.7-1.8-11.2-5.36-15.21-6.36-1.7-.4-4.15-1.2-5.4-1.75s-4.8-1.45-7.91-2.05c-3.05-.6-7.3-1.5-9.35-2.1-3.1-.8-5.61-1-14.26-1.15-5.76-.05-12.21.05-14.36.3zM1134.11 1094.01c-2.85 1.8-3.6 3.8-3.3 8.55.2 2.6.65 4.05 1.85 6.16.85 1.5 2 3.95 2.55 5.45 3.25 9.06 5.8 14.06 10.31 20.11 4.1 5.51 7.5 8.41 12.5 10.81 5.86 2.75 7.91 3.2 13.86 2.85 5.61-.3 19.12-3.45 22.62-5.25 5.6-2.85 7.51-7.4 5.25-12.26-1.25-2.6-2.85-3.9-6.45-5.1-3.2-1.05-5-.85-12.16 1.25-13.96 4.15-17.61 2.3-25.47-13.01-1.2-2.35-3.2-6.6-4.45-9.46-2.65-6.15-5.8-10.05-8.91-10.95-3.3-1.01-5.65-.76-8.2.85zM946.08 1197.43c-3.46 1.15-5.66 2.6-7.01 4.65-1.55 2.26-1.7 2.86-1.5 5.06.3 3.35 3.45 6.5 8.15 8.05 3.86 1.3 4.96 2.25 11.16 9.26 5.1 5.75 6.76 8.51 9.76 15.96 1.55 3.95 3.45 8.06 4.15 9.11.7 1.05 1.3 2.05 1.3 2.3 0 .75 4.96 11.21 7.76 16.36 1.6 2.9 3.65 6.71 4.6 8.51 2.15 4.05 11.21 17.56 13.56 20.26 4.15 4.76 16.71 17.31 20.87 20.87 7.95 6.85 7.6 6.6 19.76 14.06 1.8 1.1 3.9 2.45 4.7 3 1.85 1.25 22.02 11.46 26.47 13.36 4.01 1.75 16.76 4.95 26.52 6.75 8.06 1.46 15.26 1.61 22.12.5 2.5-.4 7-1 10-1.25 8.36-.8 17.37-2.4 24.02-4.35 3.3-1 8.26-2.45 11.01-3.25 4.6-1.3 18.01-4 27.52-5.46 2.2-.35 5.6-1.15 7.5-1.85 2.05-.7 6.06-1.45 9.66-1.85 7.16-.8 8.91-1.6 10.96-5.15 2.7-4.56 1.5-10.11-2.8-12.86-1-.65-3.51-1.55-5.56-2-14.06-3.06-25.07-9.21-46.83-26.12-6.46-5.01-13.26-9.06-19.21-11.46-7.21-2.85-9.71-3.25-21.52-3.55-13.41-.3-14.21-.5-19.71-5.36-5.66-5-7.66-6.3-16.92-10.75-7.5-3.61-19.11-8.06-21.06-8.06-.45 0-2.9-.65-5.45-1.45-2.56-.8-6.46-1.85-8.66-2.3-2.2-.45-5-1.3-6.21-1.8a38.91 38.91 0 00-6.5-1.76c-2.35-.45-6.75-1.55-9.81-2.5-3-.95-5.7-1.7-5.95-1.7-.9 0-10.46-4.6-16.96-8.15-7.16-3.96-16.92-11.11-23.87-17.62-5.3-5-12.26-10.6-15.71-12.71-5.75-3.45-16.46-5.95-20.31-4.75zM1638.86 1328.53c-1.1.4-2.7 1.25-3.6 1.95-1.6 1.25-5.3 6.15-7.25 9.65-.55 1-1.95 3.36-3.1 5.21-6.71 10.66-12.96 22.36-17.02 31.92-3.9 9.36-4.55 11.01-6.95 18.01a77.3 77.3 0 00-3.65 14.51 5591.3 5591.3 0 00-2.46 15.27c-.7 4.4-2.25 12.25-3.5 17.46a304.87 304.87 0 00-3.8 19.26c-3.1 19.47-5.1 29.97-7.36 38.58a463.4 463.4 0 00-7.2 32.02 499.18 499.18 0 01-5.71 26.27 36.3 36.3 0 00-.75 7.01c0 7.45-2.15 12.36-6.9 15.86-4.85 3.55-7.06 5.9-8.11 8.8-1.2 3.16-1.25 5.81-.25 12.41 1.55 10.31.7 24.57-1.95 31.43a177.8 177.8 0 00-5.8 18.06c-.75 3-1.75 6.3-2.15 7.25a45.6 45.6 0 00-1.61 5.01 24.43 24.43 0 01-1.8 5 50 50 0 00-2.4 5.76l-2.45 6.75c-.55 1.5-2.05 6.01-3.35 10.01-1.35 4-3 8.5-3.75 10.01-.76 1.5-2.41 5.45-3.71 8.75-4.6 11.56-5.4 13.56-7.8 18.52-2.4 5-4.01 9-7.31 18.31-.9 2.65-2.7 7-4 9.76-1.25 2.7-3.05 7.1-3.95 9.7a264.54 264.54 0 01-7.21 18.52c-1.15 2.6-3.25 8.1-4.65 12.25a209.44 209.44 0 01-6.41 16.02c-2.1 4.65-4.15 9.3-4.5 10.25-.35.95-2.65 5.91-5.15 11.01a277.03 277.03 0 00-5.11 11.01c-1.15 3.05-4.8 10.71-5.55 11.51a43.7 43.7 0 00-2.5 4.25c-1 1.95-2.7 5.05-3.71 7.01-1 1.9-2.65 4.95-3.65 6.75-3.45 6.06-5.95 11.66-6.85 15.41-1 4.05-2.45 6.01-5.51 7.61-5.35 2.7-25.92 8.35-40.13 11.01-3.1.55-6.75 1.35-8.15 1.75-1.35.4-6.91 1.4-12.26 2.3-9.71 1.6-9.91 1.6-34.02 1.95-23.42.3-24.52.4-30.93 1.65-6.7 1.3-13.61 3.7-16.36 5.61-1.45 1.05-10.8 5.75-11.41 5.75-.5 0-11.45 5.45-15.11 7.5-7.2 4.06-14.51 7.01-20.46 8.26-9.56 2-12.66 4.05-15.46 10.26-.65 1.5-1.8 3.6-2.5 4.7-2.55 3.7-3.86 7.11-4.91 12.56-.55 3.05-1.2 6.15-1.45 7.01-.25.8-1.05 4.85-1.75 9-.7 4.1-1.75 8.96-2.3 10.76-.5 1.8-1.6 6.5-2.45 10.51-.8 4-1.9 9.25-2.45 11.76-1.2 5.5-2.76 13.61-4.11 21.21a70.07 70.07 0 01-2.25 9.26c-.7 1.95-2.45 8.6-3.95 14.81-3.6 14.66-6.11 23.02-8.91 29.52-1.25 2.9-3.3 8.16-4.55 11.76-2.9 8.05-5.5 15.01-7.36 19.26-.75 1.8-1.7 4.61-2.15 6.26-.95 3.7-4 12.26-5.15 14.41a132.48 132.48 0 00-6.11 15.61 248.35 248.35 0 01-7.6 20.76c-1.4 3.46-3.65 9.36-4.95 13.11a104.85 104.85 0 01-4.51 10.76c-1.1 2.15-3.95 7.86-6.25 12.66a401.18 401.18 0 01-6.61 13.01c-1.35 2.35-3 5.6-3.75 7.25-3.85 8.71-4.75 10.66-5.7 12.01-.55.85-2.25 3.76-3.71 6.51-1.45 2.75-4.1 7.35-5.9 10.26-5.05 8.2-5.8 9.4-8.81 14.76-1.6 2.75-3.9 6.75-5.2 8.85a301.9 301.9 0 00-4.6 7.96c-1.25 2.2-3.01 5.15-3.91 6.5a210.8 210.8 0 00-5.85 10.81c-2.35 4.6-4.7 8.81-5.2 9.41-1.35 1.45-6.41 10.21-9.76 16.86-2.7 5.4-2.85 5.9-2.55 8.11.7 4.55 5.45 8.8 9.8 8.8 2.56 0 5.86-1.6 8.01-3.85 2.2-2.3 6.45-8.81 9.76-14.91 1.3-2.5 3.55-6.31 4.9-8.51 1.35-2.2 4.15-7.15 6.2-11.01 2.06-3.85 4.56-8.25 5.56-9.75 1.05-1.55 2.85-4.61 4.05-6.76 2.5-4.7 6.41-11.21 7.31-12.26.35-.4 1.65-2.55 2.85-4.75 3.75-6.8 4.15-7.51 7.15-12.06 1.55-2.45 4.86-8.5 7.36-13.46 2.45-4.95 4.85-9.56 5.35-10.26.5-.7 2.4-4.55 4.21-8.55 1.85-4.05 4.7-9.66 6.35-12.51 1.6-2.85 3.65-6.91 4.5-8.96.85-2.05 3.26-7.6 5.36-12.26a292.8 292.8 0 006.4-16.01c1.45-4.15 3.55-9.85 4.71-12.76a512 512 0 005.25-14.26 228.63 228.63 0 015.4-14.01c1.2-2.75 3.25-8.25 4.61-12.26 3.35-10.2 6.65-19.36 7.85-21.66.8-1.65 5-13.66 8.51-24.62.55-1.65 1.75-5.05 2.65-7.51 1.6-4.25 2.85-9.25 5.45-22.01.65-3.05 1.85-8.51 2.76-12.16 3.55-15.06 4.55-19.61 5.3-24.12.45-2.6 1.15-6.1 1.5-7.75.4-1.65 1.15-6.16 1.75-10.01.55-3.85 1.8-10.16 2.75-14.01.9-3.85 2.4-10.26 3.26-14.26 2.25-10.26 3.25-13.51 4.95-15.86 1.65-2.25 2.65-2.7 11.31-5.16a75.48 75.48 0 0017.26-7.3c2.05-1.2 7-3.65 10.91-5.41 3.95-1.8 8.25-3.9 9.5-4.75 3.56-2.25 10.31-5.25 15.86-7.05 4.31-1.35 6.36-1.65 14.77-2.26 5.35-.4 15.71-.75 22.91-.75 11.06 0 13.96-.15 18.01-1 2.71-.5 7.26-1.2 10.16-1.5 5.61-.55 12.11-1.6 15.31-2.45 1.05-.3 4.86-1 8.41-1.55 7.1-1.15 17.06-3.65 25.27-6.25 2.9-.96 8.65-2.76 12.76-4.06 7.45-2.35 10.1-3.6 21.46-10.21 6.86-3.95 18.61-12.45 26.17-18.86 14.41-12.26 16.76-14.41 17.66-16.16 1.7-3.35 3.05-9.11 3.35-14.26.25-4.15.1-5.76-.85-9.51-1.8-7.2-3.9-12.41-7-17.36-4.46-7.21-4.46-7.96.6-19.31 1.65-3.76 3.65-8.66 4.45-10.86 3.25-9.26 4.65-12.76 7.21-18.22 1.5-3.2 3.75-8.6 5-12.05 2.55-6.96 3.45-9.11 6.55-16.02 2.26-4.95 6.21-15.01 6.21-15.76 0-.25 1.65-3.85 3.7-8 3.85-7.76 5.56-11.66 7.51-17.27a47.8 47.8 0 012.2-5.25 30.5 30.5 0 001.75-4.6 49.42 49.42 0 011.55-4.26c.45-.9 2.15-5.75 3.75-10.75 1.65-5.01 3.31-9.71 3.71-10.51 1.65-3.2 5.9-15.41 7.85-22.67 1.15-4.25 2.55-9 3.1-10.5a155.96 155.96 0 005.01-17.52c1.05-5.25 1.45-15.11.95-24.27-.25-4.2.15-5.1 4.3-9.85 3.95-4.51 5.76-7.71 7.86-13.91 1.55-4.61 1.8-6.21 2.25-13.26.45-6.56.95-9.81 2.8-17.76 1.25-5.36 3.2-14.17 4.25-19.52a841.87 841.87 0 014.01-19.01c1.1-5.11 2.6-11.96 3.25-15.31.7-3.36 1.55-6.96 1.95-8.11.4-1.1 1.1-4.45 1.5-7.45l1.55-10.16c.4-2.6 1.3-8.71 2-13.56.7-4.86 1.8-10.61 2.46-12.76a61.23 61.23 0 001.75-8.21c.35-2.35 1.15-6.4 1.8-9a87.19 87.19 0 001.75-10.51c.85-8.81 3.6-19.62 6.1-24.07.7-1.2 1.7-3.35 2.21-4.7a23.9 23.9 0 011.5-3.5c.35-.56 1.2-2.46 1.85-4.26a87.76 87.76 0 016.7-13.56c1.15-1.8 3.2-5.3 4.56-7.8 1.4-2.45 4.3-7.21 6.45-10.46 4.3-6.51 5.4-9.46 5-13.01-.3-2.9-1.55-4.65-4.35-6.1-2.5-1.26-4.85-1.36-7.71-.3zm-150.85 524.42c3.8 2.26 2.45 9.66-2.65 14.46-2.61 2.46-6.41 4.41-7.11 3.71-1.15-1.15-.5-4.31 1.85-9.16 2-4.15 5.61-9.86 6.26-9.86.1 0 .85.4 1.65.85zM1414.21 1421.44c-3.81 2.35-5.76 6.61-7.06 15.61-1.35 9.06-6.1 27.22-8.86 33.98-2.5 6.15-10.15 19.66-13.35 23.67a612.4 612.4 0 00-9.71 12.15c-5.41 7.06-11.91 12.96-20.87 18.97-5.95 4-14.21 11.56-17.71 16.31-3.1 4.1-9.41 13.41-11.71 17.16-3.95 6.46-4.85 12.46-2.55 16.71 1.45 2.61 3.8 3.91 7.11 3.91 4.25 0 5.65-1.15 10.35-8.51 9.11-14.16 10.26-15.71 15.21-20.71 5.26-5.31 10.06-9.16 17.32-13.86 4.2-2.76 12.3-10.36 15.91-14.91a332.1 332.1 0 016-7.11c8.56-9.86 14.36-18.86 20.02-30.97 5.15-11.16 6.5-14.96 8.6-24.77 4.91-22.32 5.26-24.87 4.46-29.47-1.31-7.61-7.61-11.51-13.16-8.16zM1611.55 1797.51c-4.06 1.26-5.56 2.81-13.01 13.56a274.43 274.43 0 01-7.26 10.01c-5.6 7.11-13.61 19.07-16.41 24.52-1.65 3.15-4.2 7.85-5.7 10.41-1.51 2.5-3.96 7.2-5.51 10.4-1.5 3.16-3.9 7.71-5.3 10.11-1.35 2.4-3.7 7.06-5.26 10.36-1.5 3.3-4.2 8.66-5.95 11.96a84.38 84.38 0 00-3.95 7.95 19.06 19.06 0 01-1.4 3.11c-.35.55-1.1 2.25-1.71 3.75a57.4 57.4 0 01-2.8 6.15c-1 1.9-1.8 3.76-1.8 4.16 0 .4-.65 2.05-1.5 3.7-.8 1.65-1.5 3.2-1.5 3.5 0 .6-4.05 11.26-8.71 23.02-5.6 14.01-5.85 14.66-6.25 17.71-.7 5.05.9 8.71 4.55 10.61 1.7.9 4.96.9 7.06.05 2.1-.9 5.2-4.4 6.45-7.31.6-1.25 1.45-2.9 1.95-3.6 1-1.4 2.91-6.35 5.71-14.61.95-2.7 1.9-5.2 2.15-5.5.25-.35 1.1-2.31 1.8-4.36.75-2.05 1.55-4 1.85-4.3.25-.3 1.1-2.45 1.9-4.75 2.35-6.91 3.4-9.26 8.51-19.47 2.65-5.35 5.3-10.76 5.8-12.01a77.37 77.37 0 013.41-6.45 276.8 276.8 0 005.85-11.41c1.85-3.9 3.9-7.81 4.45-8.61.6-.8 2.95-5.15 5.21-9.65a214.84 214.84 0 0121.61-34.68c2.3-3.05 4.4-5.75 4.65-6 6.71-7.86 12.61-18.57 12.61-22.82 0-6.2-6-11.16-11.5-9.51zM207.05 1963.78c-2.95.86-5.3 3.21-8.55 8.56-6.76 11.21-19.72 25.22-30.22 32.72-9.26 6.61-11.31 7.86-16.82 10.51-7.15 3.4-9.45 6.01-9.45 10.61 0 2.65.6 4.1 2.75 6.45 3.55 3.96 8.45 4.06 19.51.35 13.71-4.55 20.42-7.35 27.87-11.55 2.3-1.3 6.96-3.81 10.4-5.61 3.46-1.75 6.71-3.6 7.26-4.05 1.6-1.4 7.8-4.85 10.31-5.8 2.85-1.06 7.36-4.66 8.56-6.86 1.05-2 1.15-5.45.2-7.31-.8-1.55-3.06-3.7-4.7-4.55-.6-.35-2.6-.7-4.5-.9-5.11-.4-5.91-2.4-3.01-7.45a10.46 10.46 0 001.6-5.91c.05-3.9-.75-5.65-3.35-7.6a9 9 0 00-7.86-1.61zM1720.72 1969.89c-2.95.95-6.1 3.5-11.61 9.41-10.95 11.7-18.71 17.41-34.27 25.41-9.91 5.06-13.01 7.26-27.87 19.82-11.11 9.46-21.31 19.81-26.97 27.47-9.46 12.86-10.86 15.61-10.21 20.41.65 4.71 5.41 8.86 10.16 8.86 3.6 0 6.26-2.2 8.56-7.16 3.85-8.35 18.66-24.81 32.02-35.62 10.01-8.11 12.11-9.61 16.31-12.06 2.2-1.3 4.66-2.75 5.46-3.3.75-.55 5.15-2.95 9.75-5.26 11.11-5.7 18.82-11.5 28.82-21.71 10.06-10.26 12.41-13.81 12.36-18.42-.1-2.7-2.05-6.25-4.15-7.3-2.15-1.15-5.86-1.35-8.36-.55zM295.87 1982.15c-3.1.8-5.8 2.65-8.61 5.95-16.51 19.42-36.63 40.28-64.1 66.4-4.5 4.3-14.56 11.91-17.6 13.31-6.76 3.1-8.91 4.45-12.57 7.61-4.4 3.8-9.46 6.3-15.8 7.9-2.01.5-4.91 1.5-6.41 2.2-1.56.7-2.96 1.25-3.1 1.25-.2 0-3.26 1.4-6.86 3.06-11.7 5.5-17.56 7.4-25.57 8.25-8.1.85-9.6 1.2-14.9 3.3-5.76 2.26-8.41 6.11-7.61 10.96.95 5.71 7.9 8.36 16.2 6.21 1.56-.4 6.56-1.15 11.16-1.75 9.91-1.21 14.56-2.56 22.17-6.41 3.05-1.5 6.35-3.2 7.35-3.7 1.06-.5 5.2-2 9.26-3.35 8-2.66 13.71-5.01 16.96-6.86 1.1-.65 3.26-1.6 4.76-2.15 3.9-1.3 6.7-2.85 8.85-4.75 2.16-1.91 7.26-5.31 11.56-7.76 6.16-3.45 13.96-10.51 32.33-29.12 8-8.06 14.6-14.81 14.76-14.96 1.65-1.5 17.66-18.92 22.46-24.27 3.4-3.85 6.8-7.25 7.5-7.61 3.1-1.45 6.31-.3 12.26 4.31 4 3.1 8.46 5.45 14.72 7.85 1.85.7 5.4 2.11 7.85 3.06 7.6 3 13.76 5 20.57 6.65 6 1.45 11 2.9 22.46 6.56 5.4 1.7 13.01 3.6 20.52 5.2 3 .6 9.8 2.4 15 3.95 8.66 2.55 22.07 5.51 34.28 7.56 2.6.45 8.26 1.8 12.51 3s11.36 3 15.76 3.95c14.86 3.25 25.47 5.81 32.02 7.76 3.6 1.1 9.91 2.55 14.01 3.3 4.16.75 11.21 2 15.76 2.8 4.5.8 9.36 1.75 10.76 2.15 1.35.4 4.56 1.11 7 1.56 2.5.5 5.91 1.4 7.66 2.05 1.7.65 5.6 1.65 8.66 2.2 3.05.6 6.1 1.25 6.8 1.55.65.25 4.46 1 8.4 1.7 3.91.65 8.27 1.65 9.62 2.2 1.35.5 4.55 1.4 7.15 1.95a55.7 55.7 0 016.76 1.91c1.1.45 4.5 1.35 7.5 1.95 6.16 1.3 16.16 3.85 24.52 6.25 13.16 3.8 15.91 4.5 22.76 5.96 4 .85 9.96 2 13.26 2.55 3.3.6 8.61 1.7 11.76 2.5 7 1.7 22.72 4.75 28.52 5.5 2.35.3 6.06.85 8.26 1.25s6.8.95 10.26 1.25c3.45.36 8.05.81 10.25 1.06 2.2.25 6.4.45 9.36.45 5.1 0 5.6.1 11.26 2.2 7 2.6 12.36 4.05 18.16 4.8 2.35.3 8.3 1.3 13.26 2.25 27.67 5.26 39.43 7.26 51.04 8.81 4.15.55 9.4 1.3 11.75 1.7 2.36.4 6.6 1.05 9.46 1.5 6.1.9 11.9 2.2 18.81 4.25 2.76.81 8.61 2.06 13.01 2.71 12.36 1.9 27.32 4.75 29.12 5.65 3.8 1.8 4.36 4.1 4.9 20.42.4 11.8.96 16.81 2.5 22.26.71 2.35 1.66 7.16 2.21 10.76 1.05 7.15 4.2 20.21 5.25 21.91 1.06 1.71 2.1 4.96 7.11 21.87 1.55 5.35 1.8 6.71 1.55 9.51-.45 4.7-2.6 9.9-9.3 22.26-.6 1.1-2.1 4.26-3.3 7.01a159.39 159.39 0 01-2.86 6c-.35.55-1.45 2.56-2.45 4.51a319.3 319.3 0 01-10.86 19.51c-1.5 2.45-3.75 6.21-5 8.26-2.3 3.95-5.1 8.1-14.76 22.36-6.6 9.76-13.91 23.42-14.86 27.82-1.45 7.06 2.25 12.81 8.3 12.86 5.3 0 7.7-2.1 11.96-10.51a225.72 225.72 0 0114.21-23.51c1.25-1.8 3.3-4.86 4.5-6.76 2.6-4.15 6.2-9.75 8.1-12.51.71-1.1 2.46-4.15 3.81-6.75 1.4-2.6 3.45-6.21 4.66-8.01 1.15-1.8 3.9-6.95 6.15-11.51 2.2-4.55 4.9-9.7 5.9-11.5 1-1.81 2.46-4.76 3.2-6.51.76-1.8 3.26-7 5.56-11.66 4.8-9.55 8.1-19.51 8.56-25.87.25-3.5.15-3.95-1.36-6.75-3.35-6.31-11.45-30.62-13.5-40.48a262.4 262.4 0 00-3.5-14.71c-3-10.81-3.46-15.46-3.66-34.38-.1-14.86-.2-16.66-1.05-18.26-2.15-4.05-4.55-5.4-11.56-6.5-1.9-.3-6.1-1.2-9.25-2-3.16-.81-10.01-2.16-15.27-3.01-17.5-2.85-21.46-3.55-27.26-5-3.16-.8-7.56-1.7-9.76-2-2.2-.3-6.46-1.1-9.5-1.75-3.01-.65-6.86-1.3-8.51-1.5-3.2-.35-14.91-1.91-29.58-4.01-5-.7-9.75-1.25-10.55-1.25-2.05 0-18.52-3.3-22.77-4.55a89.1 89.1 0 00-9.26-1.75c-5.7-.7-12.1-2.25-21.41-5.21-2.7-.85-6.8-1.65-10.26-1.95-3.15-.35-9-1.25-13-2.05-4.01-.8-9.92-1.7-13.12-1.95-3.25-.3-8.75-1.05-12.25-1.75-3.56-.65-9.46-1.7-13.17-2.3-3.7-.6-8.45-1.5-10.5-2.01a79.7 79.7 0 00-7.5-1.5c-2.06-.3-5.66-1.1-8.01-1.8-2.36-.65-6.86-1.65-10.01-2.2a83.7 83.7 0 01-8-1.75c-1.26-.4-4.5-1.2-7.26-1.75a54.86 54.86 0 01-7.5-2c-3.1-1.25-12.76-3.81-31.03-8.26-3-.75-8.75-2.3-12.76-3.55-4-1.2-9.95-2.75-13.26-3.45-5.8-1.2-18.1-3.96-32.27-7.21-3.7-.85-7.75-1.9-9-2.3-1.26-.4-5.76-1.3-10.01-2-14.91-2.5-23.37-4.21-34.28-7.06a502.63 502.63 0 00-19.01-4.5c-4.4-.9-12.06-2.55-17.01-3.7a806.28 806.28 0 00-14.76-3.31c-3.16-.65-7-1.5-8.5-1.9-1.51-.4-5.46-1.2-8.77-1.75-7.4-1.25-20.16-4.15-24.06-5.5-1.65-.55-7.2-2-12.46-3.25l-17.76-4.31c-4.56-1.1-8.61-2-9.01-2-.4 0-2.1-.6-3.75-1.3-2.9-1.3-7.76-2.7-19.02-5.65-7.5-1.96-16.7-5.06-18.26-6.11-.7-.5-2.6-1.45-4.25-2.15-2.6-1.2-8.86-5.2-17.46-11.21-5.9-4.15-11.41-6.05-15.06-5.15zM1696.31 2138.76c-1.71.8-4.51 2.4-6.21 3.55-4.95 3.36-19.41 11.91-23.37 13.81-2 .95-5.4 2.51-7.5 3.51a75.7 75.7 0 00-5.15 2.5c-.7.4-3.56 1.85-6.41 3.2-5 2.4-6.9 3.05-16.36 5.75-2.45.7-5.6 1.76-7.01 2.31-6.95 2.9-16.21 5.75-21.51 6.7-13.16 2.4-32.72 8.31-42.03 12.71-6.81 3.25-15.96 9.46-22.27 15.16-8.8 7.96-10.6 10.81-10.65 16.91-.1 5.91 3.1 9.51 8.3 9.51 3.05 0 5.01-1 6.86-3.55 2.25-3.15 4.95-5.86 9.8-10.01 5.71-4.85 8.31-6.6 13.71-9.26 10.66-5.2 19.47-7.9 37.13-11.4 5.25-1.06 10.76-2.51 13.46-3.56a90 90 0 018.66-2.8c5.35-1.35 19.66-5.7 22.66-6.9a63.7 63.7 0 005.46-2.51c1.7-.85 3.2-1.55 3.4-1.55.85 0 16.66-7.5 19.26-9.1 1.25-.8 2.45-1.4 2.65-1.4.9 0 10.16-4.91 14.66-7.81 1.96-1.2 4.16-2.6 4.96-3.1 5.05-3.05 9.1-6.06 10.35-7.66 3.41-4.3 3.86-8.05 1.36-11.76-3.16-4.6-8.66-5.9-14.21-3.25zM1717.77 2248.14c-2.75.75-6 2.25-8.16 3.75-1.9 1.3-8.55 3.86-13.15 5.01-5.51 1.4-10.16 3.35-18.87 7.85-10.81 5.66-17.91 11.16-21.41 16.61-1.5 2.36-1.8 3.31-2 6.36-.2 3.2-.1 3.85 1.15 6.1 1.85 3.41 3.65 4.66 7.25 4.96 2.55.25 3.25.1 5.26-1.05 1.55-.95 2.9-2.36 4.1-4.21 1-1.55 2.25-3.4 2.85-4.05 1.4-1.6 8.81-6.55 12.66-8.51 3.35-1.7 4.3-2 13.36-4.8 10.41-3.25 22.81-9.11 26.22-12.41 4.3-4.25 4.65-10.26.75-13.71-1.8-1.6-4.41-2.65-6.41-2.6-.55 0-2.2.35-3.6.7z" fill="#DECEA7"/></svg>